<svg width="152" height="160" viewBox="0 0 152 160" fill="none" xmlns="http://www.w3.org/2000/svg">
<g clip-path="url(#clip0)">
<path d="M76.0008 160C117.942 160 151.943 158.261 151.943 156.116C151.943 153.972 117.942 152.233 76.0008 152.233C34.0591 152.233 0.0585938 153.972 0.0585938 156.116C0.0585938 158.261 34.0591 160 76.0008 160Z" fill="#E6E6E6"/>
<path d="M140.207 99.3727V100.313C140.207 100.313 141.899 106.328 139.831 106.328C137.764 106.328 137.012 100.501 137.012 100.501V99.3727H140.207Z" fill="#FFB8B8"/>
<path d="M102.613 77.942L102.989 76.4381C102.989 76.4381 105.057 71.7384 106.749 72.6784C108.441 73.6183 105.997 77.19 105.997 77.19L105.621 78.1299L102.613 77.942Z" fill="#FFB8B8"/>
<path d="M114.645 145.241L115.021 148.437L118.592 149.001V144.865L114.645 145.241Z" fill="#FFB8B8"/>
<path d="M134.381 144.301L134.757 149L138.893 148.436L138.14 143.924L134.381 144.301Z" fill="#FFB8B8"/>
<path d="M112.949 108.584L112.197 108.772L114.265 128.698V146.557L119.528 145.617L122.16 114.224L130.244 129.638L134.191 145.241L140.395 144.113L135.319 124.563L131.936 105.952L112.949 108.584Z" fill="#2F2E41"/>
<path d="M116.711 147.309C116.711 147.309 115.019 146.181 114.455 146.933C113.891 147.685 111.447 151.444 111.447 151.444C111.447 151.444 105.431 157.648 111.447 157.46C111.447 157.46 115.395 157.46 116.147 155.204C116.147 155.204 116.335 154.076 117.651 154.076C118.966 154.076 120.47 152.76 120.47 152.008C120.47 151.256 119.154 147.46 118.59 148.042C118.026 148.625 116.711 147.309 116.711 147.309Z" fill="#2F2E41"/>
<path d="M136.891 147.309C136.891 147.309 138.582 146.181 139.146 146.933C139.71 147.685 142.154 151.444 142.154 151.444C142.154 151.444 148.17 157.648 142.154 157.46C142.154 157.46 138.206 157.46 137.455 155.204C137.455 155.204 137.267 154.076 135.951 154.076C134.635 154.076 133.131 152.76 133.131 152.008C133.131 151.256 134.447 147.46 135.011 148.042C135.575 148.625 136.891 147.309 136.891 147.309Z" fill="#2F2E41"/>
<path d="M113.423 76.9826C116.164 76.9826 118.385 74.761 118.385 72.0205C118.385 69.28 116.164 67.0583 113.423 67.0583C110.683 67.0583 108.461 69.28 108.461 72.0205C108.461 74.761 110.683 76.9826 113.423 76.9826Z" fill="#FFB8B8"/>
<path d="M113.047 75.969L115.679 79.1646L120.378 75.2169L116.995 72.5852L113.047 75.969Z" fill="#FFB8B8"/>
<path d="M114.453 79.2582L114.607 77.8671L119.884 74.8349L127.053 74.1547C127.274 74.1337 127.498 74.1565 127.711 74.2219C127.923 74.2872 128.121 74.3939 128.292 74.5357C128.464 74.6775 128.606 74.8516 128.71 75.0483C128.814 75.2449 128.878 75.4601 128.899 75.6816L131.56 103.884L132.5 106.328C132.5 106.328 115.957 115.727 112.197 108.772L115.017 94.109L109.189 83.0179L114.453 79.2582Z" fill="#D0CDE1"/>
<path d="M127.24 74.5584C127.355 74.5393 127.467 74.5073 127.575 74.4629C127.92 74.3388 128.295 74.3294 128.646 74.4361C128.996 74.5428 129.303 74.7599 129.52 75.0551L137.955 86.5894L141.151 99.9364H136.639L133.632 90.9131L128.744 84.5216L127.24 74.5584Z" fill="#D0CDE1"/>
<path d="M110.695 82.6418L109.191 83.0179L104.679 86.9656L106.183 77.9423L102.423 77.1902L99.5098 92.3232L101.577 94.3909L113.327 89.5972L110.695 82.6418Z" fill="#D0CDE1"/>
<path d="M115.398 72.0045C115.398 72.0045 113.36 69.0113 112.193 69.9969C111.026 70.9825 107.756 72.9156 107.067 71.3854C106.377 69.8553 109.026 67.0519 111.025 66.3817C113.024 65.7115 116.534 64.8209 117.635 67.7761C118.298 69.6511 118.519 71.6537 118.281 73.6281L115.398 72.0045Z" fill="#2F2E41"/>
<path d="M115.604 72.5795C115.884 72.4778 115.962 71.9868 115.779 71.4828C115.596 70.9789 115.22 70.6529 114.94 70.7547C114.661 70.8565 114.582 71.3475 114.765 71.8514C114.948 72.3553 115.324 72.6813 115.604 72.5795Z" fill="#FFB8B8"/>
<path d="M92.3989 37.3125H91.5362V13.6786C91.5362 11.8823 91.1824 10.1036 90.4949 8.44404C89.8075 6.78447 88.8 5.27654 87.5298 4.00637C86.2596 2.73619 84.7517 1.72863 83.0921 1.04121C81.4325 0.3538 79.6538 -5.66635e-06 77.8575 0H27.7861C25.9898 -4.24974e-06 24.211 0.353801 22.5515 1.04121C20.8919 1.72863 19.384 2.73619 18.1138 4.00637C16.8436 5.27655 15.8361 6.78447 15.1486 8.44404C14.4612 10.1036 14.1074 11.8823 14.1074 13.6786V143.336C14.1074 145.132 14.4612 146.911 15.1486 148.57C15.8361 150.23 16.8436 151.738 18.1138 153.008C19.384 154.278 20.8919 155.286 22.5515 155.973C24.211 156.661 25.9898 157.014 27.7861 157.014H77.8575C79.6538 157.014 81.4325 156.661 83.0921 155.973C84.7517 155.286 86.2596 154.278 87.5298 153.008C88.8 151.738 89.8075 150.23 90.4949 148.57C91.1824 146.911 91.5362 145.132 91.5362 143.336V54.1354H92.3989V37.3125Z" fill="#3F3D56"/>
<path d="M78.4085 3.55848H71.8725C72.1731 4.29539 72.2878 5.0949 72.2066 5.8866C72.1254 6.67829 71.8508 7.43787 71.4069 8.09841C70.9629 8.75895 70.3634 9.30018 69.661 9.67443C68.9587 10.0487 68.175 10.2445 67.3792 10.2445H38.6939C37.898 10.2445 37.1144 10.0487 36.4121 9.67443C35.7097 9.30018 35.1101 8.75895 34.6662 8.09841C34.2223 7.43787 33.9476 6.67829 33.8664 5.88659C33.7852 5.0949 33.9 4.29538 34.2005 3.55847H28.0959C26.7545 3.55847 25.4261 3.82269 24.1868 4.33604C22.9474 4.84939 21.8213 5.60183 20.8728 6.55038C19.9242 7.49893 19.1718 8.62503 18.6584 9.86437C18.1451 11.1037 17.8809 12.432 17.8809 13.7735V143.24C17.8809 144.582 18.1451 145.91 18.6584 147.149C19.1718 148.389 19.9242 149.515 20.8728 150.463C21.8213 151.412 22.9474 152.164 24.1868 152.678C25.4261 153.191 26.7545 153.455 28.0959 153.455H78.4085C79.75 153.455 81.0783 153.191 82.3177 152.678C83.557 152.164 84.6831 151.412 85.6317 150.463C86.5802 149.515 87.3326 148.389 87.846 147.149C88.3594 145.91 88.6236 144.582 88.6236 143.24V13.7735C88.6236 12.4321 88.3594 11.1037 87.846 9.86438C87.3326 8.62504 86.5802 7.49894 85.6317 6.55039C84.6831 5.60184 83.557 4.8494 82.3177 4.33605C81.0783 3.8227 79.75 3.55848 78.4085 3.55848Z" fill="white"/>
<path d="M60.2475 38.3391H42.4141V39.9952H60.2475V38.3391Z" fill="#0371FF"/>
<path d="M73.4962 44.0675H42.4141V45.7236H73.4962V44.0675Z" fill="#E6E6E6"/>
<path d="M73.4658 49.7971H42.4141V51.4532H73.4658V49.7971Z" fill="#E6E6E6"/>
<path d="M38.7195 38.3632H25.4707V51.6119H38.7195V38.3632Z" fill="#0371FF"/>
<path d="M60.2475 73.1171H42.4141V74.7732H60.2475V73.1171Z" fill="#0371FF"/>
<path d="M73.4962 78.8457H42.4141V80.5018H73.4962V78.8457Z" fill="#E6E6E6"/>
<path d="M73.4658 84.5743H42.4141V86.2304H73.4658V84.5743Z" fill="#E6E6E6"/>
<path d="M38.7195 73.1414H25.4707V86.3901H38.7195V73.1414Z" fill="#0371FF"/>
<path d="M60.2475 107.894H42.4141V109.55H60.2475V107.894Z" fill="#0371FF"/>
<path d="M73.4962 113.624H42.4141V115.28H73.4962V113.624Z" fill="#E6E6E6"/>
<path d="M73.4658 119.352H42.4141V121.008H73.4658V119.352Z" fill="#E6E6E6"/>
<path d="M38.7195 107.92H25.4707V121.168H38.7195V107.92Z" fill="#0371FF"/>
</g>
<defs>
<clipPath id="clip0">
<rect width="151.884" height="160" fill="white" transform="translate(0.0585938)"/>
</clipPath>
</defs>
</svg>
