<svg width="226" height="160" viewBox="0 0 226 160" fill="none" xmlns="http://www.w3.org/2000/svg">
<g clip-path="url(#clip0)">
<path d="M11.3109 32.5779C13.283 32.5779 14.8816 30.9792 14.8816 29.0072C14.8816 27.0352 13.283 25.4365 11.3109 25.4365C9.33889 25.4365 7.74023 27.0352 7.74023 29.0072C7.74023 30.9792 9.33889 32.5779 11.3109 32.5779Z" fill="#E6E6E6"/>
<path d="M22.0336 32.5779C24.0056 32.5779 25.6043 30.9792 25.6043 29.0072C25.6043 27.0352 24.0056 25.4365 22.0336 25.4365C20.0615 25.4365 18.4629 27.0352 18.4629 29.0072C18.4629 30.9792 20.0615 32.5779 22.0336 32.5779Z" fill="#E6E6E6"/>
<path d="M32.7426 32.5779C34.7146 32.5779 36.3132 30.9792 36.3132 29.0072C36.3132 27.0352 34.7146 25.4365 32.7426 25.4365C30.7705 25.4365 29.1719 27.0352 29.1719 29.0072C29.1719 30.9792 30.7705 32.5779 32.7426 32.5779Z" fill="#E6E6E6"/>
<path d="M43.4437 32.5779C45.4158 32.5779 47.0144 30.9792 47.0144 29.0072C47.0144 27.0352 45.4158 25.4365 43.4437 25.4365C41.4717 25.4365 39.873 27.0352 39.873 29.0072C39.873 30.9792 41.4717 32.5779 43.4437 32.5779Z" fill="#E6E6E6"/>
<path d="M54.1605 32.5779C56.1325 32.5779 57.7312 30.9792 57.7312 29.0072C57.7312 27.0352 56.1325 25.4365 54.1605 25.4365C52.1885 25.4365 50.5898 27.0352 50.5898 29.0072C50.5898 30.9792 52.1885 32.5779 54.1605 32.5779Z" fill="#E6E6E6"/>
<path d="M64.8735 32.5779C66.8455 32.5779 68.4442 30.9792 68.4442 29.0072C68.4442 27.0352 66.8455 25.4365 64.8735 25.4365C62.9014 25.4365 61.3027 27.0352 61.3027 29.0072C61.3027 30.9792 62.9014 32.5779 64.8735 32.5779Z" fill="#E6E6E6"/>
<path d="M75.5941 32.5779C77.5662 32.5779 79.1648 30.9792 79.1648 29.0072C79.1648 27.0352 77.5662 25.4365 75.5941 25.4365C73.6221 25.4365 72.0234 27.0352 72.0234 29.0072C72.0234 30.9792 73.6221 32.5779 75.5941 32.5779Z" fill="#E6E6E6"/>
<path d="M83.8392 33.3537H3.06441C2.67917 33.3533 2.30983 33.2001 2.03742 32.9276C1.76502 32.6552 1.61178 32.2859 1.61133 31.9007V26.1103C1.61178 25.7251 1.76502 25.3557 2.03742 25.0833C2.30983 24.8109 2.67917 24.6577 3.06441 24.6572H83.8392C84.2245 24.6577 84.5938 24.8109 84.8662 25.0833C85.1386 25.3557 85.2919 25.7251 85.2923 26.1103V31.9007C85.2919 32.2859 85.1386 32.6552 84.8662 32.9276C84.5938 33.2001 84.2245 33.3533 83.8392 33.3537ZM3.06441 25.2385C2.83326 25.2387 2.61165 25.3307 2.4482 25.4941C2.28475 25.6576 2.19281 25.8792 2.19256 26.1103V31.9007C2.19281 32.1318 2.28475 32.3534 2.4482 32.5169C2.61165 32.6803 2.83326 32.7723 3.06441 32.7725H83.8392C84.0704 32.7723 84.292 32.6803 84.4554 32.5169C84.6189 32.3534 84.7108 32.1318 84.7111 31.9007V26.1103C84.7108 25.8792 84.6189 25.6576 84.4554 25.4941C84.292 25.3307 84.0704 25.2387 83.8392 25.2385L3.06441 25.2385Z" fill="#E6E6E6"/>
<path d="M20.3491 0.834884C20.5704 0.835137 20.7826 0.92318 20.9391 1.07969C21.0956 1.23621 21.1837 1.44841 21.1839 1.66976V19.7615C21.1837 19.9829 21.0956 20.1951 20.9391 20.3516C20.7826 20.5081 20.5704 20.5962 20.3491 20.5964H2.62681C2.40546 20.5962 2.19326 20.5081 2.03674 20.3516C1.88023 20.1951 1.79218 19.9829 1.79193 19.7615V1.66977C1.79218 1.44843 1.88023 1.23622 2.03674 1.07971C2.19326 0.923192 2.40546 0.835149 2.62681 0.834896H20.3491V0.834884ZM20.3491 1.19917e-05H2.62681C2.18396 1.19917e-05 1.75924 0.175933 1.4461 0.489076C1.13296 0.80222 0.957031 1.22693 0.957031 1.66978V19.7615C0.957031 20.2044 1.13296 20.6291 1.4461 20.9423C1.75924 21.2554 2.18396 21.4313 2.62681 21.4313H20.3491C20.7919 21.4313 21.2166 21.2554 21.5298 20.9423C21.8429 20.6291 22.0188 20.2044 22.0188 19.7615V1.66977C22.0188 1.22692 21.8429 0.802207 21.5298 0.489064C21.2166 0.175921 20.7919 6.94765e-07 20.3491 0V1.19917e-05Z" fill="#E6E6E6"/>
<path d="M17.5782 5.59135H5.75399C5.69895 5.59169 5.6444 5.58115 5.59346 5.56032C5.54251 5.53949 5.49619 5.5088 5.45716 5.47C5.41812 5.43121 5.38715 5.38507 5.36601 5.33426C5.34487 5.28345 5.33398 5.22895 5.33398 5.17392C5.33398 5.11888 5.34487 5.06439 5.36601 5.01358C5.38715 4.96276 5.41812 4.91663 5.45716 4.87783C5.49619 4.83904 5.54251 4.80834 5.59346 4.78752C5.6444 4.76669 5.69895 4.75614 5.75399 4.75648H17.5782C17.6332 4.75614 17.6877 4.76669 17.7387 4.78752C17.7896 4.80834 17.8359 4.83904 17.875 4.87783C17.914 4.91663 17.945 4.96276 17.9661 5.01358C17.9873 5.06439 17.9982 5.11888 17.9982 5.17392C17.9982 5.22895 17.9873 5.28345 17.9661 5.33426C17.945 5.38507 17.914 5.43121 17.875 5.47C17.8359 5.5088 17.7896 5.53949 17.7387 5.56032C17.6877 5.58115 17.6332 5.59169 17.5782 5.59135Z" fill="#0371FF"/>
<path d="M17.5782 8.5452H5.75399C5.69895 8.54554 5.6444 8.53499 5.59346 8.51416C5.54251 8.49334 5.49619 8.46264 5.45716 8.42385C5.41812 8.38505 5.38715 8.33892 5.36601 8.28811C5.34487 8.23729 5.33398 8.1828 5.33398 8.12777C5.33398 8.07273 5.34487 8.01824 5.36601 7.96743C5.38715 7.91661 5.41812 7.87049 5.45716 7.83169C5.49619 7.79289 5.54251 7.7622 5.59346 7.74137C5.6444 7.72055 5.69895 7.71 5.75399 7.71034H17.5782C17.6332 7.71 17.6877 7.72055 17.7387 7.74137C17.7896 7.7622 17.8359 7.79289 17.875 7.83169C17.914 7.87049 17.945 7.91661 17.9661 7.96743C17.9873 8.01824 17.9982 8.07273 17.9982 8.12777C17.9982 8.1828 17.9873 8.23729 17.9661 8.28811C17.945 8.33892 17.914 8.38505 17.875 8.42385C17.8359 8.46264 17.7896 8.49334 17.7387 8.51416C17.6877 8.53499 17.6332 8.54554 17.5782 8.5452Z" fill="#0371FF"/>
<path d="M17.5782 11.5033H5.75399C5.69895 11.5037 5.6444 11.4931 5.59346 11.4723C5.54251 11.4515 5.49619 11.4208 5.45716 11.382C5.41812 11.3432 5.38715 11.2971 5.36601 11.2462C5.34487 11.1954 5.33398 11.1409 5.33398 11.0859C5.33398 11.0309 5.34487 10.9764 5.36601 10.9256C5.38715 10.8747 5.41812 10.8286 5.45716 10.7898C5.49619 10.751 5.54251 10.7203 5.59346 10.6995C5.6444 10.6787 5.69895 10.6681 5.75399 10.6685H17.5782C17.6332 10.6681 17.6877 10.6787 17.7387 10.6995C17.7896 10.7203 17.8359 10.751 17.875 10.7898C17.914 10.8286 17.945 10.8747 17.9661 10.9256C17.9873 10.9764 17.9982 11.0309 17.9982 11.0859C17.9982 11.1409 17.9873 11.1954 17.9661 11.2462C17.945 11.2971 17.914 11.3432 17.875 11.382C17.8359 11.4208 17.7896 11.4515 17.7387 11.4723C17.6877 11.4931 17.6332 11.5037 17.5782 11.5033Z" fill="#0371FF"/>
<path d="M17.5782 14.4575H5.75399C5.69895 14.4578 5.6444 14.4472 5.59346 14.4264C5.54251 14.4056 5.49619 14.3749 5.45716 14.3361C5.41812 14.2973 5.38715 14.2512 5.36601 14.2004C5.34487 14.1495 5.33398 14.095 5.33398 14.04C5.33398 13.985 5.34487 13.9305 5.36601 13.8797C5.38715 13.8288 5.41812 13.7827 5.45716 13.7439C5.49619 13.7051 5.54251 13.6744 5.59346 13.6536C5.6444 13.6328 5.69895 13.6222 5.75399 13.6226H17.5782C17.6332 13.6222 17.6877 13.6328 17.7387 13.6536C17.7896 13.6744 17.8359 13.7051 17.875 13.7439C17.914 13.7827 17.945 13.8288 17.9661 13.8797C17.9873 13.9305 17.9982 13.985 17.9982 14.04C17.9982 14.095 17.9873 14.1495 17.9661 14.2004C17.945 14.2512 17.914 14.2973 17.875 14.3361C17.8359 14.3749 17.7896 14.4056 17.7387 14.4264C17.6877 14.4472 17.6332 14.4578 17.5782 14.4575Z" fill="#0371FF"/>
<path d="M17.5893 17.4155H5.7651C5.65439 17.4155 5.54821 17.3715 5.46992 17.2932C5.39163 17.2149 5.34766 17.1087 5.34766 16.998C5.34766 16.8873 5.39163 16.7811 5.46992 16.7028C5.54821 16.6245 5.65439 16.5806 5.7651 16.5806H17.5893C17.7 16.5806 17.8061 16.6245 17.8844 16.7028C17.9627 16.7811 18.0067 16.8873 18.0067 16.998C18.0067 17.1087 17.9627 17.2149 17.8844 17.2932C17.8061 17.3715 17.7 17.4155 17.5893 17.4155Z" fill="#0371FF"/>
<path d="M80.8725 0.834884C81.0938 0.835137 81.306 0.92318 81.4626 1.07969C81.6191 1.23621 81.7071 1.44841 81.7074 1.66976V19.7615C81.7071 19.9829 81.6191 20.1951 81.4626 20.3516C81.306 20.5081 81.0938 20.5962 80.8725 20.5964H63.1502C62.9289 20.5962 62.7167 20.5081 62.5602 20.3516C62.4037 20.1951 62.3156 19.9829 62.3154 19.7615V1.66977C62.3156 1.44843 62.4037 1.23622 62.5602 1.07971C62.7167 0.923192 62.9289 0.835149 63.1502 0.834896H80.8725V0.834884ZM80.8725 1.19917e-05H63.1502C62.7074 1.19917e-05 62.2827 0.175933 61.9695 0.489076C61.6564 0.80222 61.4805 1.22693 61.4805 1.66978V19.7615C61.4805 20.2044 61.6564 20.6291 61.9695 20.9423C62.2827 21.2554 62.7074 21.4313 63.1502 21.4313H80.8725C81.3153 21.4313 81.7401 21.2554 82.0532 20.9423C82.3663 20.6291 82.5423 20.2044 82.5423 19.7615V1.66977C82.5423 1.22692 82.3663 0.802208 82.0532 0.489064C81.7401 0.175921 81.3153 0 80.8725 0V1.19917e-05Z" fill="#E6E6E6"/>
<path d="M78.1231 5.59135H66.2989C66.2439 5.59169 66.1893 5.58115 66.1384 5.56032C66.0874 5.53949 66.0411 5.5088 66.0021 5.47C65.963 5.43121 65.9321 5.38507 65.9109 5.33426C65.8898 5.28345 65.8789 5.22895 65.8789 5.17392C65.8789 5.11888 65.8898 5.06439 65.9109 5.01358C65.9321 4.96276 65.963 4.91663 66.0021 4.87783C66.0411 4.83904 66.0874 4.80834 66.1384 4.78752C66.1893 4.76669 66.2439 4.75614 66.2989 4.75648H78.1231C78.2334 4.75715 78.3389 4.80143 78.4166 4.87964C78.4943 4.95786 78.538 5.06365 78.538 5.17392C78.538 5.28419 78.4943 5.38998 78.4166 5.46819C78.3389 5.5464 78.2334 5.59068 78.1231 5.59135H78.1231Z" fill="#0371FF"/>
<path d="M78.1231 8.5452H66.2989C66.2439 8.54554 66.1893 8.53499 66.1384 8.51416C66.0874 8.49334 66.0411 8.46264 66.0021 8.42385C65.963 8.38505 65.9321 8.33892 65.9109 8.28811C65.8898 8.23729 65.8789 8.1828 65.8789 8.12777C65.8789 8.07273 65.8898 8.01824 65.9109 7.96743C65.9321 7.91661 65.963 7.87049 66.0021 7.83169C66.0411 7.79289 66.0874 7.7622 66.1384 7.74137C66.1893 7.72055 66.2439 7.71 66.2989 7.71034H78.1231C78.2334 7.71101 78.3389 7.75529 78.4166 7.8335C78.4943 7.91171 78.538 8.0175 78.538 8.12777C78.538 8.23804 78.4943 8.34383 78.4166 8.42204C78.3389 8.50025 78.2334 8.54453 78.1231 8.5452H78.1231Z" fill="#0371FF"/>
<path d="M78.1231 11.5033H66.2989C66.2439 11.5037 66.1893 11.4931 66.1384 11.4723C66.0874 11.4515 66.0411 11.4208 66.0021 11.382C65.963 11.3432 65.9321 11.2971 65.9109 11.2462C65.8898 11.1954 65.8789 11.1409 65.8789 11.0859C65.8789 11.0309 65.8898 10.9764 65.9109 10.9256C65.9321 10.8747 65.963 10.8286 66.0021 10.7898C66.0411 10.751 66.0874 10.7203 66.1384 10.6995C66.1893 10.6787 66.2439 10.6681 66.2989 10.6685H78.1231C78.2334 10.6691 78.3389 10.7134 78.4166 10.7916C78.4943 10.8698 78.538 10.9756 78.538 11.0859C78.538 11.1962 78.4943 11.302 78.4166 11.3802C78.3389 11.4584 78.2334 11.5027 78.1231 11.5033H78.1231Z" fill="#0371FF"/>
<path d="M78.1231 14.4575H66.2989C66.2439 14.4578 66.1893 14.4472 66.1384 14.4264C66.0874 14.4056 66.0411 14.3749 66.0021 14.3361C65.963 14.2973 65.9321 14.2512 65.9109 14.2004C65.8898 14.1495 65.8789 14.095 65.8789 14.04C65.8789 13.985 65.8898 13.9305 65.9109 13.8797C65.9321 13.8288 65.963 13.7827 66.0021 13.7439C66.0411 13.7051 66.0874 13.6744 66.1384 13.6536C66.1893 13.6328 66.2439 13.6222 66.2989 13.6226H78.1231C78.2334 13.6232 78.3389 13.6675 78.4166 13.7457C78.4943 13.8239 78.538 13.9297 78.538 14.04C78.538 14.1503 78.4943 14.2561 78.4166 14.3343C78.3389 14.4125 78.2334 14.4568 78.1231 14.4575H78.1231Z" fill="#0371FF"/>
<path d="M78.1146 17.4155H66.2905C66.1798 17.4155 66.0736 17.3715 65.9953 17.2932C65.917 17.2149 65.873 17.1087 65.873 16.998C65.873 16.8873 65.917 16.7811 65.9953 16.7028C66.0736 16.6245 66.1798 16.5806 66.2905 16.5806H78.1147C78.2254 16.5806 78.3316 16.6245 78.4098 16.7028C78.4881 16.7811 78.5321 16.8873 78.5321 16.998C78.5321 17.1087 78.4881 17.2149 78.4098 17.2932C78.3316 17.3715 78.2254 17.4155 78.1147 17.4155H78.1146Z" fill="#0371FF"/>
<path d="M141.115 35.622C141.336 35.6222 141.548 35.7103 141.705 35.8668C141.861 36.0233 141.949 36.2355 141.949 36.4569V54.5486C141.949 54.77 141.861 54.9822 141.705 55.1387C141.548 55.2952 141.336 55.3833 141.115 55.3835H123.392C123.171 55.3833 122.959 55.2952 122.802 55.1387C122.646 54.9822 122.558 54.77 122.558 54.5486V36.4569C122.558 36.2355 122.646 36.0233 122.802 35.8668C122.959 35.7103 123.171 35.6223 123.392 35.622H141.115V35.622ZM141.115 34.7871H123.392C122.95 34.7871 122.525 34.9631 122.212 35.2762C121.899 35.5893 121.723 36.0141 121.723 36.4569V54.5487C121.723 54.9915 121.899 55.4162 122.212 55.7294C122.525 56.0425 122.95 56.2184 123.392 56.2184H141.115C141.557 56.2184 141.982 56.0425 142.295 55.7294C142.608 55.4162 142.784 54.9915 142.784 54.5487V36.4569C142.784 36.014 142.608 35.5893 142.295 35.2762C141.982 34.963 141.557 34.7871 141.115 34.7871V34.7871Z" fill="#0371FF"/>
<path d="M138.344 40.3754H126.52C126.465 40.3757 126.41 40.3652 126.359 40.3444C126.308 40.3235 126.262 40.2928 126.223 40.254C126.184 40.2153 126.153 40.1691 126.132 40.1183C126.11 40.0675 126.1 40.013 126.1 39.958C126.1 39.9029 126.11 39.8484 126.132 39.7976C126.153 39.7468 126.184 39.7007 126.223 39.6619C126.262 39.6231 126.308 39.5924 126.359 39.5716C126.41 39.5508 126.465 39.5402 126.52 39.5405H138.344C138.454 39.5412 138.56 39.5855 138.637 39.6637C138.715 39.7419 138.759 39.8477 138.759 39.958C138.759 40.0682 138.715 40.174 138.637 40.2522C138.56 40.3304 138.454 40.3747 138.344 40.3754Z" fill="#0371FF"/>
<path d="M138.353 43.3329H126.529C126.418 43.3329 126.312 43.289 126.234 43.2107C126.155 43.1324 126.111 43.0262 126.111 42.9155C126.111 42.8048 126.155 42.6986 126.234 42.6203C126.312 42.542 126.418 42.498 126.529 42.498H138.353C138.464 42.498 138.57 42.542 138.648 42.6203C138.726 42.6986 138.77 42.8048 138.77 42.9155C138.77 43.0262 138.726 43.1324 138.648 43.2107C138.57 43.289 138.464 43.3329 138.353 43.3329Z" fill="#0371FF"/>
<path d="M138.353 46.2873H126.529C126.474 46.2876 126.419 46.277 126.369 46.2561C126.318 46.2353 126.271 46.2046 126.232 46.1658C126.193 46.127 126.162 46.0809 126.141 46.0301C126.12 45.9793 126.109 45.9248 126.109 45.8698C126.109 45.8149 126.12 45.7604 126.141 45.7096C126.162 45.6588 126.193 45.6127 126.232 45.5739C126.271 45.5351 126.318 45.5044 126.369 45.4836C126.419 45.4627 126.474 45.4521 126.529 45.4524H138.353C138.463 45.4531 138.569 45.4974 138.647 45.5756C138.724 45.6538 138.768 45.7596 138.768 45.8698C138.768 45.9801 138.724 46.0859 138.647 46.1641C138.569 46.2424 138.463 46.2866 138.353 46.2873Z" fill="#0371FF"/>
<path d="M138.344 49.2466H126.52C126.465 49.247 126.41 49.2364 126.359 49.2156C126.308 49.1948 126.262 49.1641 126.223 49.1253C126.184 49.0865 126.153 49.0403 126.132 48.9895C126.11 48.9387 126.1 48.8842 126.1 48.8291C126.1 48.7741 126.11 48.7196 126.132 48.6688C126.153 48.6179 126.184 48.5718 126.223 48.533C126.262 48.4942 126.308 48.4635 126.359 48.4427C126.41 48.4218 126.465 48.4113 126.52 48.4116H138.344C138.454 48.4123 138.56 48.4566 138.637 48.5348C138.715 48.613 138.759 48.7188 138.759 48.8291C138.759 48.9394 138.715 49.0452 138.637 49.1234C138.56 49.2017 138.454 49.246 138.344 49.2466Z" fill="#0371FF"/>
<path d="M138.344 52.1986H126.52C126.465 52.199 126.41 52.1884 126.359 52.1676C126.308 52.1468 126.262 52.1161 126.223 52.0773C126.184 52.0385 126.153 51.9924 126.132 51.9415C126.11 51.8907 126.1 51.8362 126.1 51.7812C126.1 51.7262 126.11 51.6717 126.132 51.6209C126.153 51.5701 126.184 51.5239 126.223 51.4851C126.262 51.4463 126.308 51.4156 126.359 51.3948C126.41 51.374 126.465 51.3634 126.52 51.3638H138.344C138.454 51.3645 138.56 51.4087 138.637 51.4869C138.715 51.5651 138.759 51.6709 138.759 51.7812C138.759 51.8915 138.715 51.9973 138.637 52.0755C138.56 52.1537 138.454 52.198 138.344 52.1986Z" fill="#0371FF"/>
<path d="M50.846 21.4322H32.6597C32.1679 21.4317 31.6964 21.236 31.3487 20.8883C31.0009 20.5405 30.8053 20.069 30.8047 19.5772V6.56387C30.8052 6.07203 31.0008 5.60048 31.3486 5.25267C31.6964 4.90487 32.1679 4.70921 32.6597 4.70862H50.846C51.3379 4.70916 51.8095 4.9048 52.1573 5.25261C52.5051 5.60042 52.7008 6.072 52.7013 6.56387V19.5772C52.7007 20.069 52.505 20.5406 52.1572 20.8883C51.8094 21.2361 51.3379 21.4317 50.846 21.4322ZM32.6597 5.5435C32.3892 5.54384 32.1299 5.65146 31.9387 5.84275C31.7474 6.03404 31.6399 6.29338 31.6396 6.56387V19.5772C31.6399 19.8477 31.7474 20.107 31.9387 20.2982C32.13 20.4895 32.3893 20.5971 32.6597 20.5974H50.846C51.1165 20.5971 51.3759 20.4895 51.5672 20.2983C51.7585 20.107 51.8661 19.8477 51.8664 19.5772V6.56387C51.8661 6.29336 51.7585 6.03401 51.5672 5.84273C51.3759 5.65144 51.1166 5.54383 50.846 5.5435H32.6597Z" fill="#E6E6E6"/>
<path d="M47.6629 10.5323H35.8387C35.7284 10.5316 35.6229 10.4873 35.5452 10.4091C35.4675 10.3309 35.4238 10.2251 35.4238 10.1148C35.4238 10.0046 35.4675 9.89877 35.5452 9.82056C35.6229 9.74235 35.7284 9.69807 35.8387 9.6974H47.6629C47.7179 9.69706 47.7725 9.70761 47.8234 9.72843C47.8744 9.74926 47.9207 9.77995 47.9597 9.81875C47.9988 9.85755 48.0297 9.90368 48.0509 9.95449C48.072 10.0053 48.0829 10.0598 48.0829 10.1148C48.0829 10.1699 48.072 10.2244 48.0509 10.2752C48.0297 10.326 47.9988 10.3721 47.9597 10.4109C47.9207 10.4497 47.8744 10.4804 47.8234 10.5012C47.7725 10.5221 47.7179 10.5326 47.6629 10.5323Z" fill="#0371FF"/>
<path d="M47.6629 13.4865H35.8387C35.7284 13.4858 35.6229 13.4415 35.5452 13.3633C35.4675 13.2851 35.4238 13.1793 35.4238 13.0691C35.4238 12.9588 35.4675 12.853 35.5452 12.7748C35.6229 12.6966 35.7284 12.6523 35.8387 12.6516H47.6629C47.7179 12.6513 47.7725 12.6618 47.8234 12.6827C47.8744 12.7035 47.9207 12.7342 47.9597 12.773C47.9988 12.8118 48.0297 12.8579 48.0509 12.9087C48.072 12.9595 48.0829 13.014 48.0829 13.0691C48.0829 13.1241 48.072 13.1786 48.0509 13.2294C48.0297 13.2802 47.9988 13.3263 47.9597 13.3651C47.9207 13.4039 47.8744 13.4346 47.8234 13.4555C47.7725 13.4763 47.7179 13.4868 47.6629 13.4865Z" fill="#0371FF"/>
<path d="M47.6629 16.4408H35.8387C35.7284 16.4402 35.6229 16.3959 35.5452 16.3177C35.4675 16.2395 35.4238 16.1337 35.4238 16.0234C35.4238 15.9131 35.4675 15.8073 35.5452 15.7291C35.6229 15.6509 35.7284 15.6066 35.8387 15.606H47.6629C47.7179 15.6056 47.7725 15.6162 47.8234 15.637C47.8744 15.6578 47.9207 15.6885 47.9597 15.7273C47.9988 15.7661 48.0297 15.8122 48.0509 15.8631C48.072 15.9139 48.0829 15.9684 48.0829 16.0234C48.0829 16.0784 48.072 16.1329 48.0509 16.1837C48.0297 16.2345 47.9988 16.2807 47.9597 16.3195C47.9207 16.3583 47.8744 16.389 47.8234 16.4098C47.7725 16.4306 47.7179 16.4412 47.6629 16.4408Z" fill="#0371FF"/>
<path d="M111.197 28.6406L93.7304 23.5753C93.2582 23.4377 92.8599 23.1185 92.6227 22.6877C92.3856 22.2568 92.329 21.7495 92.4655 21.277L96.09 8.7786C96.2275 8.30636 96.5467 7.90795 96.9776 7.67077C97.4085 7.43359 97.9159 7.37701 98.3884 7.51343L115.855 12.5788C116.327 12.7163 116.726 13.0355 116.963 13.4665C117.2 13.8974 117.257 14.4048 117.12 14.8773L113.496 27.3757C113.358 27.8479 113.039 28.2463 112.608 28.4834C112.177 28.7206 111.67 28.7771 111.197 28.6406ZM98.1559 8.31528C97.896 8.24026 97.6169 8.27139 97.38 8.40185C97.143 8.5323 96.9675 8.75142 96.8919 9.01113L93.2673 21.5095C93.1923 21.7693 93.2234 22.0484 93.3538 22.2853C93.4842 22.5223 93.7033 22.6978 93.963 22.7734L111.43 27.8388C111.69 27.9138 111.969 27.8828 112.206 27.7524C112.443 27.622 112.618 27.4029 112.694 27.1432L116.318 14.6448C116.393 14.3849 116.362 14.1059 116.232 13.8689C116.101 13.6319 115.882 13.4563 115.623 13.3806L98.1559 8.31528Z" fill="#E6E6E6"/>
<path d="M111.168 17.2872L99.8121 13.9939C99.706 13.9629 99.6165 13.8911 99.5633 13.7941C99.51 13.6972 99.4974 13.5832 99.5282 13.477C99.559 13.3708 99.6307 13.2811 99.7275 13.2277C99.8243 13.1743 99.9384 13.1615 100.045 13.1921L111.401 16.4854C111.507 16.5162 111.597 16.588 111.65 16.685C111.704 16.782 111.716 16.8962 111.686 17.0026C111.655 17.1089 111.583 17.1986 111.486 17.252C111.389 17.3054 111.275 17.3181 111.168 17.2872H111.168Z" fill="#0371FF"/>
<path d="M110.339 20.1279L98.9828 16.8346C98.9302 16.8193 98.881 16.7938 98.8382 16.7596C98.7954 16.7253 98.7598 16.683 98.7334 16.635C98.7069 16.5869 98.6902 16.5342 98.6842 16.4797C98.6781 16.4252 98.6829 16.3701 98.6982 16.3174C98.7134 16.2648 98.7389 16.2156 98.7732 16.1728C98.8074 16.13 98.8498 16.0944 98.8978 16.068C98.9458 16.0415 98.9986 16.0248 99.0531 16.0188C99.1076 16.0127 99.1627 16.0175 99.2153 16.0328L110.572 19.3261C110.678 19.3571 110.767 19.4289 110.82 19.5259C110.874 19.6228 110.886 19.7369 110.855 19.8431C110.825 19.9492 110.753 20.0389 110.656 20.0923C110.559 20.1457 110.445 20.1585 110.339 20.1279Z" fill="#0371FF"/>
<path d="M109.52 22.9641L98.1637 19.6708C98.0575 19.6398 97.968 19.5679 97.9148 19.471C97.8616 19.3741 97.849 19.26 97.8798 19.1538C97.9106 19.0476 97.9823 18.958 98.0791 18.9046C98.1759 18.8512 98.29 18.8384 98.3962 18.869L109.753 22.1623C109.859 22.1931 109.949 22.2649 110.002 22.3619C110.055 22.4589 110.068 22.5731 110.037 22.6795C110.006 22.7858 109.935 22.8755 109.838 22.9289C109.741 22.9823 109.626 22.995 109.52 22.9641Z" fill="#0371FF"/>
<path d="M225.049 159.213H41.8555V159.999H225.049V159.213Z" fill="#E6E6E6"/>
<path d="M148.208 157.987H118.418L119.428 144.86H147.198L148.208 157.987Z" fill="#E6E6E6"/>
<path d="M150.227 156.47H116.902V159.5H150.227V156.47Z" fill="#E6E6E6"/>
<path d="M190.387 60.2841H76.5295C75.726 60.2841 74.9554 60.6032 74.3873 61.1714C73.8192 61.7395 73.5 62.5101 73.5 63.3135V132.739H193.417V63.3135C193.417 62.9157 193.339 62.5218 193.186 62.1542C193.034 61.7867 192.811 61.4527 192.53 61.1714C192.248 60.8901 191.914 60.6669 191.547 60.5147C191.179 60.3624 190.785 60.2841 190.387 60.2841H190.387Z" fill="#3F3D56"/>
<path d="M73.5 132.74V144.101C73.5 144.499 73.5784 144.893 73.7306 145.26C73.8829 145.628 74.106 145.962 74.3873 146.243C74.6686 146.524 75.0026 146.748 75.3701 146.9C75.7377 147.052 76.1316 147.13 76.5295 147.13H190.387C191.191 147.13 191.961 146.811 192.53 146.243C193.098 145.675 193.417 144.904 193.417 144.101V132.74H73.5Z" fill="#E6E6E6"/>
<path d="M187.604 66.5953H79.5527V127.185H187.604V66.5953Z" fill="#E6E6E6"/>
<path d="M133.572 142.837C135.245 142.837 136.602 141.48 136.602 139.807C136.602 138.134 135.245 136.778 133.572 136.778C131.899 136.778 130.543 138.134 130.543 139.807C130.543 141.48 131.899 142.837 133.572 142.837Z" fill="#3F3D56"/>
<path d="M82.9167 69.1559C83.2342 69.1559 83.4916 68.8985 83.4916 68.581C83.4916 68.2635 83.2342 68.0061 82.9167 68.0061C82.5992 68.0061 82.3418 68.2635 82.3418 68.581C82.3418 68.8985 82.5992 69.1559 82.9167 69.1559Z" fill="white"/>
<path d="M85.1062 69.1559C85.4237 69.1559 85.6811 68.8985 85.6811 68.581C85.6811 68.2635 85.4237 68.0061 85.1062 68.0061C84.7886 68.0061 84.5312 68.2635 84.5312 68.581C84.5312 68.8985 84.7886 69.1559 85.1062 69.1559Z" fill="white"/>
<path d="M87.28 69.1559C87.5975 69.1559 87.8549 68.8985 87.8549 68.581C87.8549 68.2635 87.5975 68.0061 87.28 68.0061C86.9625 68.0061 86.7051 68.2635 86.7051 68.581C86.7051 68.8985 86.9625 69.1559 87.28 69.1559Z" fill="white"/>
<path d="M184.485 70.5331H82.3418V121.418H184.485V70.5331Z" fill="white"/>
<path d="M89.1365 78.2743C89.0407 78.2744 88.949 78.3125 88.8813 78.3802C88.8136 78.4479 88.7755 78.5396 88.7754 78.6354V96.8878C88.7755 96.9835 88.8136 97.0753 88.8813 97.143C88.949 97.2107 89.0407 97.2488 89.1365 97.2489H110.215C110.311 97.2488 110.403 97.2107 110.47 97.143C110.538 97.0753 110.576 96.9835 110.576 96.8878V78.6354C110.576 78.5396 110.538 78.4479 110.47 78.3802C110.403 78.3125 110.311 78.2744 110.215 78.2743H89.1365Z" fill="#E6E6E6"/>
<path d="M122.978 78.3344C122.883 78.3344 122.791 78.3725 122.723 78.4402C122.655 78.5079 122.617 78.5997 122.617 78.6954V96.8892C122.617 96.9849 122.655 97.0767 122.723 97.1444C122.791 97.2121 122.883 97.2502 122.978 97.2503H143.99C144.085 97.2501 144.177 97.212 144.245 97.1443C144.313 97.0766 144.351 96.9849 144.351 96.8892V78.6954C144.351 78.5997 144.313 78.5079 144.245 78.4403C144.177 78.3726 144.085 78.3345 143.99 78.3344H122.978Z" fill="#E6E6E6"/>
<path d="M156.461 78.141C156.365 78.1411 156.273 78.1792 156.205 78.2469C156.138 78.3146 156.1 78.4064 156.1 78.5021V96.8865C156.1 96.9822 156.138 97.074 156.205 97.1417C156.273 97.2094 156.365 97.2475 156.461 97.2476H177.69C177.786 97.2475 177.878 97.2094 177.946 97.1417C178.013 97.074 178.051 96.9822 178.051 96.8865V78.5021C178.051 78.4064 178.013 78.3146 177.946 78.2469C177.878 78.1792 177.786 78.1411 177.69 78.141H156.461Z" fill="#E6E6E6"/>
<path d="M89.5088 106.285C89.3111 106.285 89.1215 106.364 88.9818 106.504C88.8421 106.644 88.7637 106.833 88.7637 107.031C88.7637 107.229 88.8421 107.419 88.9818 107.558C89.1215 107.698 89.3111 107.777 89.5088 107.778H109.327C109.525 107.777 109.714 107.698 109.854 107.558C109.994 107.419 110.072 107.229 110.072 107.031C110.072 106.833 109.994 106.644 109.854 106.504C109.714 106.364 109.525 106.285 109.327 106.285H89.5088Z" fill="#E6E6E6"/>
<path d="M89.5226 109.834C89.3248 109.834 89.1352 109.913 88.9955 110.053C88.8558 110.193 88.7773 110.382 88.7773 110.58C88.7773 110.778 88.8558 110.968 88.9955 111.108C89.1352 111.248 89.3248 111.326 89.5226 111.327H98.4455C98.6433 111.326 98.8328 111.248 98.9726 111.108C99.1123 110.968 99.1907 110.778 99.1907 110.58C99.1907 110.382 99.1123 110.193 98.9726 110.053C98.8328 109.913 98.6433 109.834 98.4455 109.834H89.5226Z" fill="#0371FF"/>
<path d="M123.726 106.285C123.528 106.285 123.338 106.364 123.199 106.504C123.059 106.644 122.98 106.833 122.98 107.031C122.98 107.229 123.059 107.419 123.199 107.558C123.338 107.698 123.528 107.777 123.726 107.778H143.544C143.741 107.777 143.931 107.698 144.071 107.558C144.21 107.419 144.289 107.229 144.289 107.031C144.289 106.833 144.21 106.644 144.071 106.504C143.931 106.364 143.741 106.285 143.544 106.285H123.726Z" fill="#E6E6E6"/>
<path d="M123.726 109.834C123.528 109.834 123.338 109.913 123.199 110.053C123.059 110.193 122.98 110.382 122.98 110.58C122.98 110.778 123.059 110.968 123.199 111.108C123.338 111.248 123.528 111.326 123.726 111.327H132.649C132.846 111.326 133.036 111.248 133.176 111.108C133.315 110.968 133.394 110.778 133.394 110.58C133.394 110.382 133.315 110.193 133.176 110.053C133.036 109.913 132.846 109.834 132.649 109.834H123.726Z" fill="#0371FF"/>
<path d="M157.075 106.285C156.877 106.285 156.688 106.364 156.548 106.504C156.409 106.644 156.33 106.833 156.33 107.031C156.33 107.229 156.409 107.419 156.548 107.558C156.688 107.698 156.877 107.777 157.075 107.778H176.893C177.091 107.777 177.281 107.698 177.42 107.558C177.56 107.419 177.638 107.229 177.638 107.031C177.638 106.833 177.56 106.644 177.42 106.504C177.281 106.364 177.091 106.285 176.893 106.285H157.075Z" fill="#E6E6E6"/>
<path d="M89.5088 102.617C89.3111 102.617 89.1215 102.696 88.9818 102.836C88.8421 102.976 88.7637 103.166 88.7637 103.363C88.7637 103.561 88.8421 103.751 88.9818 103.891C89.1215 104.031 89.3111 104.11 89.5088 104.11H109.327C109.525 104.11 109.714 104.031 109.854 103.891C109.994 103.751 110.072 103.561 110.072 103.363C110.072 103.166 109.994 102.976 109.854 102.836C109.714 102.696 109.525 102.617 109.327 102.617H89.5088Z" fill="#E6E6E6"/>
<path d="M123.726 102.617C123.528 102.617 123.338 102.696 123.199 102.836C123.059 102.976 122.98 103.166 122.98 103.363C122.98 103.561 123.059 103.751 123.199 103.891C123.338 104.031 123.528 104.11 123.726 104.11H143.544C143.741 104.11 143.931 104.031 144.071 103.891C144.21 103.751 144.289 103.561 144.289 103.363C144.289 103.166 144.21 102.976 144.071 102.836C143.931 102.696 143.741 102.617 143.544 102.617H123.726Z" fill="#E6E6E6"/>
<path d="M157.075 102.617C156.877 102.617 156.688 102.696 156.548 102.836C156.409 102.976 156.33 103.166 156.33 103.363C156.33 103.561 156.409 103.751 156.548 103.891C156.688 104.031 156.877 104.11 157.075 104.11H176.893C177.091 104.11 177.281 104.031 177.42 103.891C177.56 103.751 177.638 103.561 177.638 103.363C177.638 103.166 177.56 102.976 177.42 102.836C177.281 102.696 177.091 102.617 176.893 102.617H157.075Z" fill="#E6E6E6"/>
<path d="M157.075 109.834C156.878 109.834 156.688 109.913 156.548 110.053C156.409 110.193 156.33 110.382 156.33 110.58C156.33 110.778 156.409 110.968 156.548 111.108C156.688 111.248 156.878 111.326 157.075 111.327H165.998C166.196 111.326 166.385 111.248 166.525 111.108C166.665 110.968 166.743 110.778 166.743 110.58C166.743 110.382 166.665 110.193 166.525 110.053C166.385 109.913 166.196 109.834 165.998 109.834H157.075Z" fill="#0371FF"/>
</g>
<defs>
<clipPath id="clip0">
<rect width="224.087" height="160" fill="white" transform="translate(0.957031)"/>
</clipPath>
</defs>
</svg>
