<svg width="224" height="160" viewBox="0 0 224 160" fill="none" xmlns="http://www.w3.org/2000/svg">
<g clip-path="url(#clip0)">
<path opacity="0.1" d="M220.238 107.567C215.053 118.263 204.525 125.415 193.614 130.131C178.926 136.483 162.75 139.002 146.797 137.937C144.002 137.751 141.214 137.454 138.436 137.045C128.785 135.637 119.375 132.897 110.477 128.904C107.909 127.747 105.393 126.485 102.929 125.116C98.8137 122.835 94.8704 120.256 91.1309 117.4C90.1903 116.682 89.2627 115.946 88.3481 115.191C87.7139 114.668 87.0855 114.133 86.4474 113.614C85.1009 112.519 83.7154 111.479 82.1699 110.701C81.7035 110.466 81.2255 110.255 80.7375 110.068C75.8433 108.207 70.1998 108.909 65.1046 110.361C61.229 111.466 57.4511 112.978 53.5794 114.057C51.8573 114.552 50.1025 114.925 48.3281 115.173C44.3665 115.675 40.3433 115.322 36.5297 114.137L36.2039 114.036C35.6575 113.864 35.1156 113.676 34.5783 113.472L34.2524 113.347C33.732 113.147 33.2227 112.931 32.7245 112.701L32.3986 112.553C31.8782 112.311 31.3689 112.055 30.8706 111.786C30.6911 111.692 30.5135 111.591 30.3378 111.495C27.5029 109.912 24.926 107.905 22.696 105.545C22.6316 105.481 22.5711 105.414 22.5009 105.35C22.1906 105.014 21.8862 104.673 21.5915 104.323C21.4822 104.195 21.373 104.066 21.2656 103.933C20.9157 103.506 20.5781 103.07 20.2528 102.624C20.2041 102.559 20.1572 102.493 20.1104 102.429C18.7779 100.585 17.6731 98.5873 16.8203 96.4787C16.7929 96.4143 16.7676 96.3479 16.7442 96.2835C16.484 95.6135 16.2465 94.9325 16.0319 94.2404C15.9441 93.9516 15.8602 93.6549 15.786 93.3661C15.7606 93.2803 15.7372 93.1924 15.7158 93.1066C14.6386 88.8661 14.5156 84.4578 14.5156 80.0749C14.5156 79.5636 14.5156 79.053 14.5156 78.543C14.5468 71.4535 14.6561 64.2429 15.7021 57.2509C15.7021 57.2022 15.7158 57.1534 15.7236 57.1065C16.0736 54.7527 16.5498 52.4193 17.1501 50.1165C17.7783 47.7002 18.5811 45.3328 19.5523 43.0328C21.9584 37.3736 25.4573 32.2238 29.3426 27.4506C39.1291 15.4395 51.9636 5.35646 66.9858 1.58239C83.1729 -2.48245 101.163 1.41261 114.22 11.8079C118.201 14.977 121.778 18.7296 126.249 21.1592C130.152 23.2745 134.72 24.1507 138.9 22.4861C142.354 21.1104 144.602 20.4274 148.482 20.6362C156.513 21.0905 164.43 22.7489 171.969 25.5557C172.273 25.667 172.578 25.7821 172.88 25.8973C192.533 33.4161 209.427 48.3544 218.208 67.5506C218.441 68.058 218.667 68.5693 218.885 69.0844C224.121 81.3141 226.014 95.6474 220.238 107.567Z" fill="#0371FF"/>
<path opacity="0.1" d="M23.7019 144.99C33.2162 144.99 40.9291 143.751 40.9291 142.223C40.9291 140.694 33.2162 139.456 23.7019 139.456C14.1875 139.456 6.47461 140.694 6.47461 142.223C6.47461 143.751 14.1875 144.99 23.7019 144.99Z" fill="#0371FF"/>
<path opacity="0.1" d="M178.245 160C195.115 160 208.791 158.672 208.791 157.034C208.791 155.396 195.115 154.068 178.245 154.068C161.375 154.068 147.699 155.396 147.699 157.034C147.699 158.672 161.375 160 178.245 160Z" fill="#0371FF"/>
<path d="M205.9 21.027H25.3241C23.978 21.027 22.8867 22.1182 22.8867 23.4643V123.641C22.8867 124.987 23.978 126.079 25.3241 126.079H205.9C207.246 126.079 208.337 124.987 208.337 123.641V23.4643C208.337 22.1182 207.246 21.027 205.9 21.027Z" fill="url(#paint0_linear)"/>
<path d="M205.631 22.5037H25.6229C24.2768 22.5037 23.1855 23.5949 23.1855 24.941V123.291C23.1855 124.637 24.2768 125.729 25.6229 125.729H205.631C206.977 125.729 208.068 124.637 208.068 123.291V24.941C208.068 23.5949 206.977 22.5037 205.631 22.5037Z" fill="white"/>
<path d="M205.631 22.5037H25.6229C24.2768 22.5037 23.1855 23.5949 23.1855 24.941V123.291C23.1855 124.637 24.2768 125.729 25.6229 125.729H205.631C206.977 125.729 208.068 124.637 208.068 123.291V24.941C208.068 23.5949 206.977 22.5037 205.631 22.5037Z" fill="white"/>
<path opacity="0.04" d="M205.631 22.5037H25.6229C24.2768 22.5037 23.1855 23.5949 23.1855 24.941V123.291C23.1855 124.637 24.2768 125.729 25.6229 125.729H205.631C206.977 125.729 208.068 124.637 208.068 123.291V24.941C208.068 23.5949 206.977 22.5037 205.631 22.5037Z" fill="white"/>
<path d="M207.13 21.3195H24.1242C23.8752 21.3195 23.6365 21.4184 23.4605 21.5944C23.2844 21.7704 23.1855 22.0092 23.1855 22.2581V26.2254H208.06V22.2581C208.061 22.0105 207.963 21.7729 207.788 21.5971C207.614 21.4213 207.377 21.3215 207.13 21.3195Z" fill="#5A5773"/>
<path d="M26.8759 25.0406C27.5764 25.0406 28.1443 24.4727 28.1443 23.7721C28.1443 23.0716 27.5764 22.5037 26.8759 22.5037C26.1753 22.5037 25.6074 23.0716 25.6074 23.7721C25.6074 24.4727 26.1753 25.0406 26.8759 25.0406Z" fill="white"/>
<path d="M30.2919 25.0406C30.9924 25.0406 31.5603 24.4727 31.5603 23.7721C31.5603 23.0716 30.9924 22.5037 30.2919 22.5037C29.5913 22.5037 29.0234 23.0716 29.0234 23.7721C29.0234 24.4727 29.5913 25.0406 30.2919 25.0406Z" fill="white"/>
<path d="M33.7079 25.0406C34.4084 25.0406 34.9763 24.4727 34.9763 23.7721C34.9763 23.0716 34.4084 22.5037 33.7079 22.5037C33.0073 22.5037 32.4395 23.0716 32.4395 23.7721C32.4395 24.4727 33.0073 25.0406 33.7079 25.0406Z" fill="white"/>
<path opacity="0.2" d="M88.0234 35.452H38.4082V39.6632H88.0234V35.452Z" fill="#0371FF"/>
<path opacity="0.1" d="M192.837 52.337H38.4082V117.117H192.837V52.337Z" fill="#5A5773"/>
<path opacity="0.1" d="M128.831 56.5613H126.187V51.4252C126.187 45.6294 121.566 40.8113 115.77 40.7235C114.372 40.7088 112.986 40.9708 111.69 41.4945C110.394 42.0182 109.215 42.7931 108.22 43.7746C107.225 44.7562 106.434 45.9249 105.893 47.2135C105.351 48.5021 105.07 49.8851 105.066 51.2827V56.5613H102.428C101.262 56.5649 100.145 57.0297 99.3202 57.8542C98.4957 58.6787 98.0309 59.7958 98.0273 60.9618V82.0803C98.0309 83.2462 98.4957 84.3634 99.3202 85.1879C100.145 86.0124 101.262 86.4771 102.428 86.4807H128.831C129.997 86.4771 131.114 86.0123 131.938 85.1878C132.762 84.3632 133.226 83.246 133.229 82.0803V60.9618C133.226 59.796 132.762 58.6788 131.938 57.8543C131.114 57.0298 129.997 56.5649 128.831 56.5613ZM117.171 70.2897V77.8534C117.173 78.2539 117.024 78.6404 116.752 78.9347C116.48 79.2289 116.107 79.4088 115.707 79.438C115.499 79.4478 115.29 79.4151 115.095 79.3421C114.899 79.269 114.721 79.157 114.57 79.0129C114.419 78.8688 114.298 78.6956 114.216 78.5036C114.134 78.3117 114.092 78.1051 114.092 77.8964V70.2858C113.378 69.9376 112.803 69.3578 112.461 68.6409C112.119 67.924 112.03 67.1124 112.209 66.3385C112.387 65.5646 112.823 64.8741 113.445 64.3797C114.066 63.8852 114.837 63.616 115.631 63.616C116.425 63.616 117.196 63.8852 117.818 64.3797C118.439 64.8741 118.875 65.5646 119.054 66.3385C119.232 67.1124 119.144 67.924 118.802 68.6409C118.46 69.3578 117.885 69.9376 117.171 70.2858V70.2897ZM123.111 56.5613H108.146V51.2827C108.146 49.2989 108.934 47.3964 110.336 45.9936C111.739 44.5909 113.642 43.8029 115.625 43.8029C117.609 43.8029 119.512 44.5909 120.914 45.9936C122.317 47.3964 123.105 49.2989 123.105 51.2827L123.111 56.5613Z" fill="black"/>
<path d="M128.831 56.1713H126.187V51.0351C126.187 45.2394 121.566 40.4213 115.77 40.3335C114.372 40.3188 112.986 40.5808 111.69 41.1045C110.394 41.6282 109.215 42.4031 108.22 43.3846C107.225 44.3662 106.434 45.5349 105.893 46.8235C105.351 48.1121 105.07 49.495 105.066 50.8927V56.1713H102.428C101.262 56.1749 100.145 56.6397 99.3202 57.4641C98.4957 58.2886 98.0309 59.4058 98.0273 60.5718V81.6902C98.0309 82.8561 98.4957 83.9733 99.3202 84.7978C100.145 85.6223 101.262 86.0871 102.428 86.0907H128.831C129.997 86.0871 131.114 85.6222 131.938 84.7977C132.762 83.9732 133.226 82.856 133.229 81.6902V60.5718C133.226 59.406 132.762 58.2888 131.938 57.4643C131.114 56.6397 129.997 56.1749 128.831 56.1713ZM117.171 69.8996V77.4634C117.173 77.8639 117.024 78.2504 116.752 78.5446C116.48 78.8388 116.107 79.0187 115.707 79.0479C115.499 79.0577 115.29 79.0251 115.095 78.952C114.899 78.8789 114.721 78.767 114.57 78.6228C114.419 78.4787 114.298 78.3055 114.216 78.1136C114.134 77.9217 114.092 77.7151 114.092 77.5063V69.8957C113.378 69.5476 112.803 68.9677 112.461 68.2509C112.119 67.534 112.03 66.7224 112.209 65.9485C112.387 65.1746 112.823 64.4841 113.445 63.9896C114.066 63.4952 114.837 63.226 115.631 63.226C116.425 63.226 117.196 63.4952 117.818 63.9896C118.439 64.4841 118.875 65.1746 119.054 65.9485C119.232 66.7224 119.144 67.534 118.802 68.2509C118.46 68.9677 117.885 69.5476 117.171 69.8957V69.8996ZM123.111 56.1713H108.146V50.8927C108.146 48.9089 108.934 47.0064 110.336 45.6036C111.739 44.2009 113.642 43.4128 115.625 43.4128C117.609 43.4128 119.512 44.2009 120.914 45.6036C122.317 47.0064 123.105 48.9089 123.105 50.8927L123.111 56.1713Z" fill="#0371FF"/>
<path opacity="0.1" d="M192.836 46.1023H177.205V49.7925H192.836V46.1023Z" fill="#5A5773"/>
<path d="M198.161 157.927C198.059 157.41 197.882 156.91 197.639 156.442L195.297 152.945H195.31C195.31 152.945 194.942 151.189 195.31 150.326C195.679 149.464 193.995 147.343 193.995 147.343C193.995 147.343 193.79 146.81 194.325 146.154C194.86 145.499 193.995 143.578 193.995 143.578C193.995 143.578 193.585 139.568 193.544 138.955C193.503 138.343 193.174 134.947 193.174 134.947L192.393 127.748L191.004 108.669L190.978 108.312C191.15 108.228 191.242 108.175 191.242 108.175L190.965 97.626L191.205 97.4094C193.3 95.5126 198.134 91.1219 198.085 91.0262C198.037 90.9306 197.5 83.6947 197.438 81.8838C197.384 80.5968 197.102 79.3296 196.606 78.1409C196.485 77.9009 196.136 76.3183 195.992 75.649C195.952 75.4655 195.927 75.3504 195.927 75.3504C195.927 75.3504 194.51 72.6496 194.633 71.4221C194.756 70.1947 195.002 69.2756 191.981 68.8463C191.981 68.8463 189.444 68.4677 187.934 67.4354C187.041 66.817 186.064 66.3282 185.034 65.9835C185.034 65.9835 184.187 64.4224 183.598 64.9512C183.348 64.3941 183.162 63.8109 183.042 63.2125L183.024 63.1032C184.143 62.3231 184.948 61.1708 185.296 59.8521C185.315 59.7779 185.331 59.7018 185.348 59.6277C185.407 59.6475 185.468 59.6587 185.53 59.6609C186.043 59.6609 186.359 59.0891 186.839 58.9076C187.034 58.8315 187.274 58.8198 187.425 58.6656C187.474 58.6062 187.511 58.5373 187.533 58.4632C187.555 58.3891 187.562 58.3112 187.554 58.2344C187.558 58.1811 187.558 58.1276 187.554 58.0743C187.554 58.0555 187.554 58.0366 187.554 58.0177V58.0373C187.423 57.3269 186.872 56.6966 186.933 55.9746C186.991 55.2955 187.589 54.6984 187.54 54.0368C187.539 53.9845 187.535 53.9323 187.526 53.8807V53.9041C187.453 53.6459 187.32 53.4089 187.136 53.2133C186.926 52.9271 186.65 52.6956 186.332 52.5381C186.061 52.4191 185.746 52.3918 185.493 52.2493C184.747 51.8434 184.749 50.7857 184.306 50.0637C184.117 49.7623 183.847 49.5192 183.528 49.3611C183.209 49.203 182.852 49.1362 182.497 49.168C181.943 49.2226 181.442 49.5173 180.893 49.6129C180.144 49.7456 179.381 49.5017 178.671 49.2226C177.96 48.9436 177.24 48.6372 176.477 48.6372C175.714 48.6372 174.889 49.0275 174.658 49.7476C174.536 50.1379 174.596 50.5574 174.502 50.9536C174.335 51.6522 173.722 52.1517 173.088 52.4991C172.697 52.7157 172.233 52.9635 172.112 53.3733C172.112 53.3616 172.112 53.3519 172.112 53.3421C172.103 53.3748 172.097 53.4081 172.092 53.4416C172.088 53.4851 172.088 53.5289 172.092 53.5724C172.092 53.8534 172.241 54.1207 172.34 54.3881C172.526 54.8967 172.521 55.4551 172.328 55.9609C172.184 56.3317 171.938 56.6576 171.798 57.0264C171.731 57.1982 171.688 57.378 171.669 57.5611V57.5299C171.664 57.6131 171.664 57.6965 171.669 57.7797C171.666 58.0647 171.733 58.346 171.864 58.5993C171.954 58.7742 172.077 58.9294 172.228 59.0558C172.378 59.1821 172.552 59.2771 172.74 59.335C173.13 59.4247 173.374 59.0423 173.786 59.1398C173.86 59.1576 173.932 59.1804 174.003 59.2081C174.016 59.2959 174.03 59.3838 174.046 59.4696C174.295 60.783 174.995 61.9681 176.024 62.8202C176.024 62.8671 176.04 62.9139 176.046 62.9627C176.171 63.7407 176.225 64.5284 176.208 65.3161C176.208 65.3161 175.593 64.4165 174.75 66.1533C174.75 66.1533 172.551 67.4217 171.792 67.5661C171.033 67.7105 168.338 68.6492 168.338 68.6492C167.931 68.9431 167.442 69.1009 166.941 69.0999C166.099 69.0999 165.401 70.9401 165.502 71.9412C165.604 72.9423 165.442 73.68 164.659 73.7209C163.877 73.7619 164.304 75.3484 164.31 75.3757L164.238 75.7172C164.086 76.4159 163.754 77.9146 163.637 78.1487C163.141 79.3375 162.859 80.6046 162.804 81.8916C162.743 83.7025 162.218 90.9111 162.158 91.0341C162.117 91.1141 165.428 94.1407 167.756 96.2561L168.094 96.5605L167.023 106.567C167.054 106.953 167.168 107.327 167.358 107.664C167.548 108.001 167.809 108.293 168.123 108.519C168.123 108.636 168.123 108.755 168.111 108.878C168.065 110.049 167.971 111.466 167.784 111.836C167.456 112.492 167.538 116.009 167.538 116.009C167.538 116.009 167.208 123.166 166.798 123.945C166.388 124.724 166.304 126.357 166.427 126.677C166.55 126.997 166.016 135.593 166.016 135.593L165.606 139.439C165.606 139.439 165.729 143.12 165.358 143.202C164.987 143.284 164.782 145.821 164.782 145.821C164.782 145.821 163.469 147.62 164.043 148.273C164.616 148.927 163.959 149.216 163.898 149.378C163.838 149.54 162.645 150.159 163.508 152.446C163.516 152.468 163.525 152.49 163.535 152.512C162.727 153.634 160.167 157.254 160.323 157.804C160.438 158.154 160.683 158.447 161.006 158.624C161.609 158.985 162.643 159.153 164.289 158.624C167.021 157.744 166.825 157.11 166.825 157.11C166.839 156.813 166.967 156.533 167.181 156.328C167.395 156.122 167.68 156.007 167.977 156.005C169.107 155.923 169.95 154.881 169.95 154.881L169.817 154.387L169.635 153.704C169.657 153.509 169.795 153.168 170.416 152.978C171.362 152.692 171.115 150.892 171.115 150.892C171.115 150.892 171.033 149.011 171.442 148.765C171.852 148.519 171.69 145.411 171.69 145.411C171.69 145.411 172.143 143.161 172.799 141.646C173.454 140.132 174.239 131.136 174.239 131.136C174.239 131.136 174.772 126.718 175.265 125.45C175.759 124.181 176.212 120.624 176.212 120.624C176.212 120.624 179.254 114.732 179.293 113.423C179.293 113.423 179.683 112.195 180.074 113.546C180.464 114.896 181.561 118.128 181.561 118.128L182.628 122.095L183.902 128.025L184.726 133.017C184.726 133.017 184.601 134.898 184.921 135.554C185.241 136.21 185.702 137.72 185.456 138.007C185.21 138.294 185.947 139.644 186.154 139.929C186.361 140.214 186.154 146.269 186.154 146.269C186.154 146.269 187.099 151.423 188.455 152.319C188.55 152.381 188.65 152.433 188.756 152.475C188.736 153.033 188.717 153.78 188.742 154.171C188.739 154.258 188.754 154.345 188.785 154.426C188.908 154.59 190.305 155.695 190.594 155.695C190.883 155.695 191.907 156.411 191.95 156.758C191.993 157.106 194.953 158.577 195.373 158.62C195.792 158.663 197.826 159.028 198.105 158.456C198.174 158.289 198.194 158.105 198.161 157.927ZM190.889 84.2177L191.099 84.3992C191.099 84.3992 191.316 86.0872 191.47 86.5926C191.624 87.098 191.439 88.0815 191.439 88.0815C191.453 88.4486 191.526 88.811 191.655 89.1548C191.839 89.5236 191.285 90.3257 191.285 90.3257H190.791L190.637 84.0069L190.889 84.2177ZM176.208 65.3512V65.3142C176.204 65.3259 176.202 65.3395 176.202 65.3512H176.208ZM168.627 89.6759C168.551 89.5124 168.539 89.3262 168.595 89.1548C168.639 89.0622 168.674 88.9654 168.699 88.866C168.759 88.6097 168.797 88.3485 168.812 88.0854C168.812 88.0822 168.812 88.0789 168.812 88.0757C168.794 87.982 168.636 87.0765 168.783 86.5965C168.929 86.1164 169.152 84.4031 169.152 84.4031L169.292 84.284L169.618 84.0011C169.618 84.0011 169.618 83.8957 169.641 83.722C169.71 85.2051 169.764 86.8443 169.676 86.9263C169.513 87.0883 168.915 88.6826 169.06 88.745C169.107 88.7665 169.042 89.4046 168.933 90.2632C168.81 90.0789 168.708 89.882 168.627 89.6759Z" fill="url(#paint1_linear)"/>
<path d="M184.352 66.9105V69.3381L179.372 71.8418C179.372 71.8418 174.427 68.8502 175.647 67.6598C176.427 66.9066 176.277 64.8381 176.066 63.4155C175.943 62.5881 175.801 61.9812 175.801 61.9812C175.801 61.9812 184.684 59.4443 183.341 61.3704C182.892 62.0143 182.857 62.8476 183.007 63.6731C183.312 65.3103 184.352 66.9105 184.352 66.9105Z" fill="#C37098"/>
<path d="M170.708 90.6498L170.066 98.557C170.066 98.557 169.104 97.6847 167.859 96.549C165.55 94.4434 162.272 91.4323 162.311 91.3523C162.371 91.2294 162.896 84.0559 162.953 82.2528C163.006 80.9729 163.285 79.7125 163.776 78.5294C163.893 78.2953 164.223 76.8044 164.362 76.1077C164.409 75.8911 164.438 75.7506 164.438 75.7506L165.515 75.3174C165.515 75.3174 170.003 80.3248 170.003 80.4165C170.003 80.5082 169.697 84.3545 169.697 84.3545L169.379 84.6316L169.24 84.7506C169.24 84.7506 169.026 86.4308 168.874 86.9343C168.721 87.4377 168.885 88.312 168.903 88.4057C168.888 88.6686 168.851 88.9298 168.792 89.1862C168.766 89.2849 168.731 89.3809 168.688 89.4731C168.633 89.6439 168.644 89.8292 168.719 89.9922C168.806 90.2184 168.919 90.4339 169.055 90.6342L170.708 90.6498Z" fill="#3F3D56"/>
<path d="M197.909 91.352C197.956 91.4476 193.169 95.8168 191.094 97.7039L190.154 98.5566L189.518 90.6494H191.167C191.167 90.6494 191.717 89.8552 191.533 89.4883C191.406 89.1463 191.334 88.7858 191.321 88.4209C191.321 88.4209 191.502 87.4452 191.35 86.9398C191.198 86.4343 190.983 84.7561 190.983 84.7561L190.774 84.5766L190.526 84.36C190.526 84.36 190.22 80.5137 190.22 80.422C190.22 80.3303 194.708 75.3229 194.708 75.3229L195.778 75.7502C195.778 75.7502 195.801 75.8654 195.84 76.0488C195.985 76.7142 196.33 78.2891 196.449 78.5291C196.94 79.7121 197.219 80.9725 197.273 82.2524C197.323 84.0555 197.846 91.229 197.909 91.352Z" fill="#3F3D56"/>
<path d="M197.932 158.47C197.645 159.04 195.631 158.665 195.216 158.634C194.8 158.603 191.865 157.125 191.824 156.78C191.783 156.435 190.766 155.722 190.481 155.722C190.196 155.722 188.813 154.622 188.69 154.46C188.659 154.379 188.645 154.293 188.649 154.206C188.606 153.537 188.69 151.814 188.69 151.814L194.593 152.14L197.462 156.454C197.703 156.92 197.878 157.417 197.981 157.931C198.016 158.112 197.999 158.299 197.932 158.47Z" fill="#3F3D56"/>
<path opacity="0.1" d="M197.932 158.47C197.645 159.04 195.631 158.665 195.216 158.634C194.8 158.603 191.865 157.125 191.824 156.78C191.783 156.435 190.766 155.722 190.481 155.722C190.196 155.722 188.813 154.622 188.69 154.46C188.659 154.379 188.645 154.293 188.649 154.206C188.606 153.537 188.69 151.814 188.69 151.814L194.593 152.14L197.462 156.454C197.703 156.92 197.878 157.417 197.981 157.931C198.016 158.112 197.999 158.299 197.932 158.47Z" fill="black"/>
<path opacity="0.1" d="M197.932 158.471C197.645 159.041 195.631 158.666 195.216 158.635C194.8 158.603 191.865 157.126 191.824 156.781C191.783 156.435 190.766 155.723 190.481 155.723C190.197 155.723 188.813 154.623 188.69 154.461C188.659 154.38 188.645 154.293 188.649 154.207L190.562 155.417C190.562 155.417 191.783 156.197 192.109 156.66C192.435 157.122 195.003 158.084 195.216 158.104C195.374 158.119 197.06 157.796 197.981 157.932C198.016 158.113 197.999 158.299 197.932 158.471Z" fill="black"/>
<path d="M170.022 154.909C170.022 154.909 169.187 155.947 168.071 156.027C167.776 156.029 167.493 156.145 167.281 156.349C167.069 156.553 166.944 156.831 166.931 157.126C166.931 157.126 167.126 157.758 164.427 158.634C162.798 159.159 161.773 158.993 161.176 158.634C160.856 158.457 160.614 158.166 160.499 157.818C160.316 157.169 163.918 152.222 163.918 152.222L167.196 152.027L169.538 153.084L169.897 154.425L170.022 154.909Z" fill="#3F3D56"/>
<path opacity="0.1" d="M170.022 154.909C170.022 154.909 169.187 155.947 168.071 156.027C167.776 156.029 167.493 156.145 167.281 156.349C167.069 156.553 166.944 156.831 166.931 157.126C166.931 157.126 167.126 157.758 164.427 158.634C162.798 159.159 161.773 158.993 161.176 158.634C160.856 158.457 160.614 158.166 160.499 157.818C160.316 157.169 163.918 152.222 163.918 152.222L167.196 152.027L169.538 153.084L169.897 154.425L170.022 154.909Z" fill="black"/>
<path opacity="0.1" d="M170.024 154.909C170.024 154.909 169.188 155.947 168.072 156.027C167.778 156.029 167.495 156.144 167.283 156.349C167.071 156.553 166.946 156.831 166.933 157.126C166.933 157.126 167.128 157.758 164.429 158.634C162.799 159.159 161.775 158.993 161.178 158.634C162.714 158.474 166.107 157.504 166.447 157.169C166.854 156.761 167.364 155.641 167.709 155.621C167.949 155.606 169.169 154.872 169.901 154.417L170.024 154.909Z" fill="black"/>
<path d="M195.157 150.37C194.79 151.225 195.157 152.975 195.157 152.975C195.157 152.975 189.693 153.26 188.358 152.364C187.024 151.469 186.079 146.338 186.079 146.338C186.079 146.338 186.274 140.314 186.079 140.029C185.884 139.744 185.142 138.402 185.386 138.117C185.63 137.832 185.191 136.326 184.857 135.674C184.524 135.022 184.662 133.151 184.662 133.151L183.847 128.182L182.586 122.281L181.515 118.331C181.515 118.331 180.416 115.115 180.043 113.773C179.671 112.43 179.276 113.65 179.276 113.65C179.237 114.953 176.224 120.816 176.224 120.816C176.224 120.816 175.775 124.357 175.288 125.618C174.8 126.879 174.269 131.277 174.269 131.277C174.269 131.277 173.488 140.232 172.844 141.739C172.2 143.245 171.757 145.484 171.757 145.484C171.757 145.484 171.921 148.579 171.513 148.823C171.106 149.066 171.172 150.94 171.172 150.94C171.172 150.94 171.416 152.729 170.479 153.016C169.543 153.303 169.699 153.912 169.699 153.912C169.699 153.912 164.488 154.767 163.634 152.485C162.779 150.204 163.959 149.597 164.024 149.433C164.088 149.269 164.738 148.986 164.168 148.333C163.598 147.679 164.9 145.891 164.9 145.891C164.9 145.891 165.105 143.368 165.47 143.286C165.835 143.204 165.716 139.542 165.716 139.542L166.122 135.715C166.122 135.715 166.652 127.166 166.53 126.84C166.407 126.514 166.489 124.888 166.896 124.108C167.304 123.327 167.628 116.208 167.628 116.208C167.628 116.208 167.546 112.709 167.872 112.058C168.067 111.689 168.149 110.27 168.196 109.113C168.231 108.229 168.239 107.497 168.239 107.497L172.798 105.788L178.652 103.916L183.577 106.277L190.784 107.661L190.874 108.904L192.249 127.893L193.03 135.057C193.03 135.057 193.356 138.435 193.397 139.046C193.438 139.657 193.844 143.647 193.844 143.647C193.844 143.647 194.699 145.56 194.17 146.212C193.641 146.863 193.844 147.382 193.844 147.382C193.844 147.382 195.524 149.515 195.157 150.37Z" fill="#3F3D56"/>
<path opacity="0.1" d="M183.345 61.3713C182.896 62.0153 182.861 62.8486 183.011 63.674C181.986 64.3975 180.751 64.764 179.497 64.7171C178.243 64.6702 177.039 64.2126 176.07 63.4145C175.947 62.5871 175.805 61.9802 175.805 61.9802C175.805 61.9802 184.688 59.4472 183.345 61.3713Z" fill="black"/>
<path d="M185.422 58.8805C185.422 60.0113 185.086 61.1168 184.458 62.057C183.83 62.9973 182.937 63.7302 181.892 64.1629C180.847 64.5957 179.698 64.7089 178.589 64.4883C177.479 64.2677 176.461 63.7231 175.661 62.9235C174.861 62.1239 174.317 61.1051 174.096 59.9959C173.876 58.8868 173.989 57.7372 174.422 56.6924C174.854 55.6476 175.587 54.7547 176.527 54.1264C177.468 53.4981 178.573 53.1628 179.704 53.1628C180.456 53.1592 181.201 53.3046 181.896 53.5906C182.592 53.8767 183.223 54.2977 183.755 54.8294C184.287 55.361 184.708 55.9928 184.994 56.6881C185.28 57.3835 185.425 58.1286 185.422 58.8805Z" fill="#C37098"/>
<path opacity="0.1" d="M186.611 68.3827L184.738 101.742L174.561 99.6057L172.545 86.2325L174.541 68.2793L176.044 68.4725L178.694 68.8101L181.319 68.9721L184.164 68.6559L186.611 68.3827Z" fill="black"/>
<path d="M186.611 68.6254L184.738 101.985L174.561 99.8484L172.545 86.4752L174.541 68.5239L176.044 68.7152L178.694 69.0528L181.319 69.2147L184.164 68.8986L186.611 68.6254Z" fill="#0371FF"/>
<path d="M178.242 69.5223L181.907 69.6453L180.877 71.0874C180.877 71.0874 180.949 74.0009 181.439 74.8361C181.928 75.6713 181.784 88.5741 181.784 88.5741L180.808 90.426L179.14 88.3497L179.161 71.3138L178.242 69.5223Z" fill="#3F3D56"/>
<path opacity="0.1" d="M178.242 69.5223L181.907 69.6453L180.877 71.0874C180.877 71.0874 180.949 74.0009 181.439 74.8361C181.928 75.6713 181.784 88.5741 181.784 88.5741L180.808 90.426L179.14 88.3497L179.161 71.3138L178.242 69.5223Z" fill="black"/>
<path opacity="0.1" d="M183.989 65.7352L180.57 69.521L182.524 71.5564L185.761 68.4009L183.989 65.7352Z" fill="black"/>
<path d="M183.989 65.4916L180.57 69.2774L182.524 71.3127L185.761 68.1572L183.989 65.4916Z" fill="#0371FF"/>
<path opacity="0.1" d="M179.122 69.3388L175.66 65.8789L175.334 67.6898L176.922 71.6591L179.122 69.3388Z" fill="black"/>
<path d="M179.247 69.0949L175.787 65.635L175.461 67.4459L177.049 71.4151L179.247 69.0949Z" fill="#0371FF"/>
<path opacity="0.1" d="M190.896 108.91C189.235 109.701 187.455 110.216 185.627 110.434C182.269 110.861 180.072 106.587 180.072 106.587L178.79 108.256C178.382 110.028 172.174 110.475 169.651 109.803C169.128 109.674 168.635 109.441 168.203 109.118C168.238 108.234 168.246 107.503 168.246 107.503L172.805 105.793L178.659 103.922L183.584 106.283L190.791 107.666L190.896 108.91Z" fill="black"/>
<path opacity="0.1" d="M186.609 68.6274L184.737 101.985L174.559 99.8484L172.539 86.4771L174.533 68.5239L176.036 68.7191C175.998 69.373 175.924 70.0245 175.816 70.6705C175.572 71.8121 177.078 79.9125 177.078 79.9125C177.078 79.9125 179.941 88.9964 181.229 87.687C182.517 86.3776 184.351 79.4637 184.351 79.4637C185.594 76.8995 184.373 69.7065 184.281 69.5621C184.217 69.3494 184.178 69.13 184.164 68.9084L186.609 68.6274Z" fill="black"/>
<path opacity="0.1" d="M191.007 94.4412L191.092 97.7098L190.152 98.5626L189.518 90.6495H190.923L191.007 94.4412Z" fill="black"/>
<path opacity="0.1" d="M168.91 88.4122C168.895 88.6751 168.858 88.9363 168.798 89.1927C168.798 89.1205 168.798 89.0795 168.783 89.0737C168.724 89.0581 168.794 88.7595 168.91 88.4122Z" fill="black"/>
<path opacity="0.1" d="M170.712 90.6498L170.07 98.557C170.07 98.557 169.108 97.6847 167.863 96.549L168.012 95.1479C168.012 95.1479 168.537 91.7055 168.728 90.0078C168.814 90.2341 168.927 90.4495 169.063 90.6498H170.712Z" fill="black"/>
<path d="M176.232 65.7555C176.232 65.7555 175.623 64.8598 174.788 66.5888C174.788 66.5888 172.61 67.8514 171.86 67.9938C171.111 68.1363 168.445 69.073 168.445 69.073C168.043 69.364 167.559 69.5204 167.062 69.5199C166.227 69.5199 165.534 71.3523 165.635 72.3494C165.737 73.3466 165.575 74.0804 164.802 74.1213C164.029 74.1623 164.455 75.7684 164.455 75.7684L169.605 81.6715C169.605 81.6715 169.93 87.1062 169.768 87.2701C169.606 87.434 169.015 89.0264 169.158 89.0811C169.3 89.1357 168.377 95.1461 168.377 95.1461L167.136 106.81C167.136 106.81 167.136 108.761 169.661 109.435C172.186 110.108 178.398 109.663 178.798 107.891L180.08 106.221C180.08 106.221 182.277 110.496 185.636 110.069C188.994 109.641 191.133 108.42 191.133 108.42L190.766 94.4417L190.522 84.3664L195.765 75.7508C195.765 75.7508 194.36 73.0637 194.483 71.8479C194.606 70.6322 194.848 69.7111 191.857 69.2837C191.857 69.2837 189.333 68.9071 187.846 67.8787C186.963 67.2651 185.997 66.779 184.978 66.4346C184.978 66.4346 184.139 64.8735 183.555 65.4082C183.555 65.4082 184.141 67.6153 184.092 67.9451C184.043 68.2748 184.184 69.7657 184.275 69.9199C184.367 70.0741 185.589 77.2573 184.346 79.8215C184.346 79.8215 182.521 86.7354 181.223 88.0448C179.926 89.3543 177.073 80.2703 177.073 80.2703C177.073 80.2703 175.566 72.168 175.81 71.0283C176.054 69.8887 176.232 65.7555 176.232 65.7555Z" fill="#3F3D56"/>
<path d="M180.587 92.441C181.082 92.441 181.483 92.04 181.483 91.5453C181.483 91.0506 181.082 90.6495 180.587 90.6495C180.092 90.6495 179.691 91.0506 179.691 91.5453C179.691 92.04 180.092 92.441 180.587 92.441Z" fill="#3F3D56"/>
<path d="M180.587 96.6642C181.082 96.6642 181.483 96.2632 181.483 95.7685C181.483 95.2738 181.082 94.8728 180.587 94.8728C180.092 94.8728 179.691 95.2738 179.691 95.7685C179.691 96.2632 180.092 96.6642 180.587 96.6642Z" fill="#3F3D56"/>
<path opacity="0.1" d="M180.587 92.441C181.082 92.441 181.483 92.04 181.483 91.5453C181.483 91.0506 181.082 90.6495 180.587 90.6495C180.092 90.6495 179.691 91.0506 179.691 91.5453C179.691 92.04 180.092 92.441 180.587 92.441Z" fill="black"/>
<path opacity="0.1" d="M180.587 96.6642C181.082 96.6642 181.483 96.2632 181.483 95.7685C181.483 95.2738 181.082 94.8728 180.587 94.8728C180.092 94.8728 179.691 95.2738 179.691 95.7685C179.691 96.2632 180.092 96.6642 180.587 96.6642Z" fill="black"/>
<path opacity="0.1" d="M188.637 149.148C188.637 149.148 192.313 149.433 192.678 149.718C193.043 150.003 188.637 149.148 188.637 149.148Z" fill="black" stroke="#0371FF" stroke-miterlimit="10"/>
<path opacity="0.1" d="M166.75 146.258C166.75 146.258 167.531 147.233 167.199 147.682C166.867 148.131 166.75 146.258 166.75 146.258Z" fill="black" stroke="#0371FF" stroke-miterlimit="10"/>
<path opacity="0.1" d="M167.686 149.777C167.686 149.777 169.11 148.841 169.68 149.463C170.25 150.086 167.686 149.777 167.686 149.777Z" fill="black" stroke="#0371FF" stroke-miterlimit="10"/>
<path opacity="0.1" d="M185.422 58.8801C185.423 59.368 185.361 59.854 185.238 60.3262C185.118 60.2713 185.017 60.1809 184.95 60.0673C184.882 59.9536 184.851 59.822 184.86 59.69C184.885 59.4578 185.039 59.2451 185.006 59.0148C184.957 58.6596 184.528 58.5152 184.302 58.2342C184.023 57.8947 184.083 57.401 184.106 56.9619C184.13 56.5228 184.019 55.9862 183.607 55.8359C183.484 55.791 183.349 55.7871 183.23 55.7364C182.906 55.5998 182.807 55.1978 182.59 54.9207C182.157 54.3626 181.296 54.3743 180.639 54.6397C180.352 54.7769 180.059 54.8994 179.761 55.0065C179.611 55.0593 179.452 55.0805 179.294 55.0687C179.136 55.057 178.982 55.0125 178.841 54.9382C178.713 54.8563 178.609 54.7431 178.477 54.6611C178.036 54.3957 177.458 54.6611 177.075 55.0026C176.693 55.3441 176.387 55.8027 175.905 56.0115C175.688 56.1091 175.421 56.1676 175.319 56.3784C175.269 56.4931 175.247 56.6184 175.257 56.7433C175.257 57.5024 175.346 58.2733 175.188 59.0167C175.087 59.4949 174.751 60.0374 174.265 59.9788C174.205 59.9698 174.145 59.9548 174.088 59.9339C173.942 59.1524 173.96 58.3489 174.142 57.5748C174.324 56.8007 174.665 56.0731 175.144 55.4383C175.623 54.8036 176.229 54.2757 176.923 53.8885C177.618 53.5012 178.385 53.263 179.177 53.1891C179.969 53.1153 180.767 53.2074 181.521 53.4595C182.275 53.7117 182.968 54.1183 183.556 54.6535C184.144 55.1887 184.614 55.8407 184.936 56.5678C185.258 57.2949 185.425 58.0811 185.426 58.8762L185.422 58.8801Z" fill="black"/>
<path d="M173.831 59.6096C173.977 59.6428 174.116 59.7189 174.266 59.7384C174.752 59.7969 175.088 59.2544 175.189 58.7763C175.347 58.0328 175.265 57.262 175.259 56.5029C175.248 56.3781 175.269 56.2526 175.32 56.138C175.431 55.9272 175.698 55.8687 175.905 55.7711C176.378 55.5604 176.686 55.1116 177.076 54.7622C177.466 54.4129 178.034 54.1554 178.475 54.4207C178.606 54.4988 178.711 54.6159 178.84 54.6978C178.981 54.7711 179.135 54.8149 179.294 54.8267C179.452 54.8384 179.611 54.8178 179.761 54.7661C180.064 54.6764 180.347 54.5183 180.638 54.3993C181.289 54.1339 182.152 54.1241 182.589 54.6783C182.806 54.9574 182.905 55.3574 183.229 55.494C183.348 55.5448 183.483 55.5506 183.606 55.5955C184.017 55.7497 184.123 56.2824 184.105 56.7215C184.088 57.1606 184.029 57.6543 184.3 57.9938C184.527 58.2709 184.956 58.4153 185.005 58.7744C185.036 59.0047 184.884 59.2193 184.858 59.4496C184.853 59.5352 184.864 59.6211 184.892 59.7023C184.919 59.7835 184.963 59.8584 185.019 59.9226C185.076 59.9869 185.145 60.0392 185.223 60.0766C185.3 60.114 185.384 60.1357 185.469 60.1404C185.977 60.1404 186.291 59.5725 186.765 59.391C186.96 59.3149 187.196 59.3032 187.35 59.1491C187.408 59.075 187.448 58.9893 187.469 58.898C187.49 58.8066 187.491 58.7119 187.471 58.6202C187.376 57.8728 186.777 57.223 186.841 56.4737C186.902 55.7555 187.567 55.1291 187.427 54.4227C187.355 54.1622 187.221 53.9231 187.036 53.726C186.827 53.4425 186.554 53.2119 186.24 53.0528C185.969 52.9357 185.655 52.9084 185.407 52.7659C184.669 52.362 184.671 51.3082 184.236 50.5901C184.049 50.2933 183.784 50.0536 183.47 49.8974C183.156 49.7411 182.806 49.6742 182.456 49.7041C181.908 49.7588 181.41 50.0495 180.868 50.1471C180.124 50.2798 179.371 50.0359 178.667 49.7568C177.962 49.4778 177.25 49.1714 176.495 49.1714C175.739 49.1714 174.922 49.5617 174.692 50.2759C174.571 50.6662 174.631 51.0838 174.537 51.476C174.373 52.1727 173.757 52.6684 173.136 53.0138C172.709 53.2518 172.196 53.525 172.145 54.0109C172.112 54.3193 172.282 54.5964 172.389 54.8949C172.571 55.4 172.567 55.9538 172.377 56.4561C172.235 56.8249 171.997 57.1488 171.852 57.5157C171.75 57.7647 171.701 58.0326 171.71 58.3017C171.719 58.5709 171.784 58.8351 171.903 59.0769C171.994 59.2532 172.12 59.409 172.273 59.5349C172.427 59.6607 172.604 59.7539 172.795 59.8087C173.179 59.9004 173.421 59.5198 173.831 59.6096Z" fill="#3F3D56"/>
<g opacity="0.1">
<path opacity="0.1" d="M175.19 58.3517C175.088 58.8298 174.751 59.3723 174.265 59.3138C174.115 59.2943 173.978 59.2182 173.83 59.185C173.422 59.0952 173.18 59.4777 172.795 59.3801C172.604 59.3254 172.427 59.2322 172.273 59.1064C172.119 58.9806 171.993 58.8247 171.902 58.6484C171.8 58.4497 171.738 58.2328 171.72 58.0102C171.681 58.3558 171.744 58.7051 171.902 59.0152C171.993 59.1916 172.119 59.3475 172.273 59.4733C172.427 59.5991 172.604 59.6923 172.795 59.747C173.186 59.8368 173.422 59.4543 173.83 59.5519C173.972 59.6016 174.118 59.6439 174.265 59.6787C174.751 59.7392 175.088 59.1967 175.19 58.7186C175.27 58.2962 175.301 57.8661 175.283 57.4365C175.282 57.7439 175.25 58.0504 175.19 58.3517Z" fill="black"/>
<path opacity="0.1" d="M172.516 55.4121C172.541 55.0923 172.497 54.7709 172.387 54.4696C172.299 54.2692 172.224 54.0632 172.162 53.8529C172.154 53.8857 172.147 53.9189 172.143 53.9524C172.11 54.2588 172.281 54.5379 172.387 54.8364C172.455 55.0218 172.498 55.2154 172.516 55.4121Z" fill="black"/>
<path opacity="0.1" d="M187.426 54.384C187.334 54.9382 186.885 55.4593 186.84 56.0428C186.829 56.1426 186.829 56.2434 186.84 56.3433C186.938 55.6622 187.541 55.0592 187.426 54.384Z" fill="black"/>
<path opacity="0.1" d="M187.456 58.5026C187.44 58.5842 187.401 58.6597 187.345 58.7211C187.2 58.8753 186.955 58.887 186.759 58.9631C186.285 59.1446 185.979 59.7183 185.464 59.7125C185.332 59.705 185.205 59.6577 185.101 59.5769C184.996 59.4961 184.919 59.3855 184.878 59.2597C184.866 59.302 184.857 59.345 184.851 59.3885C184.845 59.4739 184.857 59.5596 184.885 59.6406C184.912 59.7216 184.956 59.7963 185.013 59.8603C185.07 59.9244 185.138 59.9765 185.216 60.0138C185.293 60.051 185.376 60.0727 185.462 60.0774C185.971 60.0774 186.283 59.5095 186.757 59.33C186.953 59.2539 187.191 59.2422 187.343 59.088C187.4 59.0139 187.441 58.9282 187.462 58.8369C187.483 58.7456 187.483 58.6508 187.464 58.5592C187.462 58.5357 187.458 58.5201 187.456 58.5026Z" fill="black"/>
<path opacity="0.1" d="M185.012 58.3393C184.963 57.9842 184.534 57.8398 184.308 57.5588C184.169 57.3742 184.094 57.1496 184.093 56.9187C184.078 57.2817 184.083 57.6524 184.308 57.9256C184.532 58.1988 184.874 58.3159 184.983 58.5969C185.011 58.5141 185.021 58.4263 185.012 58.3393Z" fill="black"/>
<path opacity="0.1" d="M184.106 56.2968C184.122 55.8578 184.016 55.3211 183.605 55.1709C183.484 55.126 183.349 55.1201 183.23 55.0713C182.906 54.9347 182.804 54.5327 182.59 54.2556C182.155 53.6995 181.294 53.7092 180.638 53.9746C180.346 54.0937 180.067 54.2517 179.762 54.3415C179.613 54.3943 179.454 54.4154 179.295 54.4037C179.137 54.3919 178.983 54.3475 178.843 54.2732C178.714 54.1912 178.609 54.078 178.478 53.9961C178.035 53.7307 177.458 53.9961 177.077 54.3376C176.696 54.6791 176.388 55.1357 175.906 55.3465C175.688 55.4441 175.422 55.5026 175.309 55.7134C175.259 55.8282 175.239 55.9535 175.249 56.0783C175.249 56.1544 175.249 56.2305 175.249 56.3066C175.251 56.228 175.27 56.1508 175.305 56.0802C175.418 55.8695 175.684 55.8109 175.902 55.7134C176.374 55.5026 176.683 55.0538 177.073 54.7045C177.463 54.3551 178.031 54.0976 178.474 54.363C178.605 54.441 178.71 54.5581 178.839 54.6381C178.979 54.7129 179.133 54.7576 179.292 54.7693C179.45 54.7811 179.609 54.7597 179.758 54.7064C180.057 54.6002 180.349 54.4784 180.634 54.3415C181.288 54.0761 182.149 54.0644 182.586 54.6205C182.801 54.8977 182.902 55.2996 183.226 55.4362C183.345 55.487 183.48 55.4928 183.601 55.5377C183.934 55.6626 184.067 56.0373 184.096 56.4081L184.106 56.2968Z" fill="black"/>
</g>
<g opacity="0.1">
<path opacity="0.1" d="M174.493 58.3401C174.504 58.0162 174.62 57.7047 174.823 57.4524C175.027 57.2001 175.307 57.0206 175.621 56.941C176.491 56.7282 177.404 56.7696 178.251 57.06C180.103 57.6727 178.017 59.8779 178.017 59.8779C178.017 59.8779 176.63 61.2439 175.336 60.2896C174.954 60.0008 174.686 59.586 174.581 59.1188C174.517 58.8642 174.488 58.6024 174.493 58.3401Z" fill="black"/>
<path opacity="0.1" d="M184.673 58.3411C184.662 58.0169 184.546 57.7052 184.342 57.4529C184.138 57.2005 183.858 57.0212 183.543 56.9419C182.674 56.7296 181.762 56.7709 180.915 57.0609C179.063 57.6737 181.149 59.8788 181.149 59.8788C181.149 59.8788 182.535 61.2448 183.83 60.2906C184.212 60.0017 184.48 59.587 184.585 59.1197C184.649 58.8651 184.678 58.6034 184.673 58.3411Z" fill="black"/>
<path opacity="0.1" d="M177.902 56.8808V56.9726H181.284V56.8633L177.902 56.8808Z" fill="black"/>
<path opacity="0.1" d="M178.98 57.8577H179.088V57.5474C179.088 57.5474 179.431 57.2801 180.001 57.5474V57.8245H180.196V57.643H180.101C180.101 57.643 180.14 57.2664 179.503 57.3269C179.503 57.3269 178.992 57.2781 179.004 57.602H178.887L178.98 57.8577Z" fill="black"/>
</g>
<path d="M174.493 58.2129C174.504 57.889 174.62 57.5775 174.823 57.3252C175.027 57.0728 175.307 56.8934 175.621 56.8137C176.491 56.6024 177.404 56.6437 178.251 56.9327C180.103 57.5474 178.017 59.7506 178.017 59.7506C178.017 59.7506 176.63 61.1166 175.336 60.1624C174.953 59.8742 174.685 59.4592 174.581 58.9915C174.517 58.737 174.488 58.4752 174.493 58.2129Z" fill="#0371FF"/>
<path d="M184.675 58.2127C184.664 57.8885 184.548 57.5768 184.344 57.3245C184.14 57.0721 183.86 56.8928 183.545 56.8135C182.676 56.6022 181.764 56.6435 180.917 56.9325C179.065 57.5472 181.151 59.7504 181.151 59.7504C181.151 59.7504 182.537 61.1164 183.832 60.1622C184.215 59.874 184.483 59.4589 184.587 58.9913C184.651 58.7368 184.681 58.475 184.675 58.2127Z" fill="#0371FF"/>
<path d="M177.902 56.7579V56.8516H181.284V56.7404L177.902 56.7579Z" fill="#0371FF"/>
<path d="M178.982 57.7346H179.09V57.4243C179.09 57.4243 179.433 57.159 180.003 57.4243V57.7034H180.198V57.52H180.102C180.102 57.52 180.141 57.1453 179.505 57.2038C179.505 57.2038 178.994 57.157 179.006 57.479H178.889L178.982 57.7346Z" fill="#0371FF"/>
<path d="M24.2549 89.2168H23.1465V114.176H24.2549V89.2168Z" fill="#535461"/>
<path d="M31.2185 114.1L31.1482 115.224L31.0507 116.81L31.0097 117.472L30.9121 119.06L30.8692 119.722L30.7716 121.308L29.6534 139.353C29.6058 140.13 29.2636 140.859 28.6969 141.392C28.1301 141.925 27.3814 142.222 26.6034 142.222H20.792C20.0141 142.222 19.2656 141.925 18.6992 141.392C18.1327 140.859 17.7911 140.13 17.7438 139.353L16.6198 121.308L16.5222 119.722L16.4813 119.06L16.3856 117.468L16.3447 116.806L16.2471 115.22L16.1768 114.096C16.1635 113.88 16.1945 113.664 16.2679 113.461C16.3414 113.257 16.4556 113.071 16.6037 112.914C16.7518 112.756 16.9306 112.631 17.1291 112.545C17.3275 112.46 17.5414 112.415 17.7575 112.416H29.6398C29.8562 112.415 30.0703 112.46 30.269 112.546C30.4676 112.631 30.6464 112.757 30.7944 112.915C30.9424 113.073 31.0564 113.26 31.1294 113.463C31.2023 113.667 31.2327 113.884 31.2185 114.1Z" fill="#3F3D56"/>
<path d="M31.1511 115.224L31.0536 116.811H16.3456L16.248 115.224H31.1511Z" fill="#9D9CB5"/>
<path d="M31.0127 117.472L30.9151 119.06H16.4862L16.3867 117.472H31.0127Z" fill="#9D9CB5"/>
<path d="M30.8723 119.723L30.7747 121.31H16.6269L16.5273 119.723H30.8723Z" fill="#9D9CB5"/>
<path d="M14.5521 98.5724C21.0075 103.242 23.6965 110.548 23.6965 110.548C23.6965 110.548 15.9162 110.281 9.45106 105.611C2.98596 100.941 0.306641 93.6353 0.306641 93.6353C0.306641 93.6353 8.09481 93.9026 14.5521 98.5724Z" fill="#0371FF"/>
<path d="M0.324219 93.6353C0.324219 93.6353 8.39925 98.1236 10.9888 101.831C13.5784 105.539 23.7043 110.55 23.7043 110.55" stroke="#535461" stroke-width="2" stroke-miterlimit="10"/>
<path d="M18.7218 89.1722C22.2344 91.7091 23.6999 95.69 23.6999 95.69C23.6999 95.69 19.4653 95.5456 15.9508 93.0029C12.4362 90.4602 10.9746 86.4851 10.9746 86.4851C10.9746 86.4851 15.2092 86.6198 18.7218 89.1722Z" fill="#0371FF"/>
<path d="M10.9746 86.4767C10.9746 86.4767 15.3692 88.916 16.7782 90.9357C18.1871 92.9554 23.6999 95.6815 23.6999 95.6815" stroke="#535461" stroke-width="2" stroke-miterlimit="10"/>
<path d="M28.8083 95.4805C24.7707 99.9161 23.918 105.712 23.918 105.712C23.918 105.712 29.6084 104.317 33.6439 99.881C37.6795 95.4454 38.5342 89.6477 38.5342 89.6477C38.5342 89.6477 32.8438 91.043 28.8083 95.4805Z" fill="#0371FF"/>
<path d="M38.5342 89.6477C38.5342 89.6477 33.2771 94.1945 31.9403 97.3285C30.6036 100.463 23.918 105.72 23.918 105.72" stroke="#535461" stroke-width="2" stroke-miterlimit="10"/>
</g>
<defs>
<linearGradient id="paint0_linear" x1="115.611" y1="126.079" x2="115.611" y2="21.027" gradientUnits="userSpaceOnUse">
<stop stop-color="#808080" stop-opacity="0.25"/>
<stop offset="0.54" stop-color="#808080" stop-opacity="0.12"/>
<stop offset="1" stop-color="#808080" stop-opacity="0.1"/>
</linearGradient>
<linearGradient id="paint1_linear" x1="35913.1" y1="94338.7" x2="35913.1" y2="31964.1" gradientUnits="userSpaceOnUse">
<stop stop-color="#808080" stop-opacity="0.25"/>
<stop offset="0.54" stop-color="#808080" stop-opacity="0.12"/>
<stop offset="1" stop-color="#808080" stop-opacity="0.1"/>
</linearGradient>
<clipPath id="clip0">
<rect width="223.55" height="160" fill="white" transform="translate(0.224609)"/>
</clipPath>
</defs>
</svg>
