<svg width="28" height="28" viewBox="0 0 28 28" fill="none" xmlns="http://www.w3.org/2000/svg">
<path d="M18.9462 14.9472C20.2534 13.9188 21.2075 12.5085 21.6758 10.9125C22.1442 9.31652 22.1034 7.61426 21.5592 6.04253C21.015 4.4708 19.9945 3.10776 18.6396 2.14305C17.2847 1.17833 15.6628 0.659912 13.9995 0.659912C12.3362 0.659912 10.7143 1.17833 9.35941 2.14305C8.0045 3.10776 6.98397 4.4708 6.43979 6.04253C5.89561 7.61426 5.85486 9.31652 6.32319 10.9125C6.79152 12.5085 7.74565 13.9188 9.05284 14.9472C6.81294 15.8446 4.85856 17.333 3.39803 19.2538C1.9375 21.1746 1.02559 23.4556 0.759507 25.8539C0.740247 26.029 0.755663 26.2062 0.804875 26.3753C0.854086 26.5445 0.93613 26.7022 1.04632 26.8397C1.26887 27.1172 1.59255 27.295 1.94617 27.3339C2.2998 27.3728 2.65439 27.2696 2.93194 27.0471C3.20949 26.8245 3.38728 26.5009 3.42617 26.1472C3.71895 23.5408 4.96176 21.1337 6.91713 19.3856C8.87251 17.6376 11.4034 16.6713 14.0262 16.6713C16.649 16.6713 19.1798 17.6376 21.1352 19.3856C23.0906 21.1337 24.3334 23.5408 24.6262 26.1472C24.6624 26.4749 24.8188 26.7774 25.065 26.9966C25.3112 27.2157 25.6299 27.3359 25.9595 27.3339H26.1062C26.4557 27.2937 26.7751 27.117 26.9949 26.8422C27.2147 26.5675 27.317 26.2171 27.2795 25.8672C27.0122 23.4622 26.0953 21.1752 24.6273 19.2515C23.1593 17.3278 21.1954 15.8399 18.9462 14.9472ZM13.9995 14.0006C12.9447 14.0006 11.9135 13.6878 11.0365 13.1017C10.1594 12.5157 9.47582 11.6828 9.07215 10.7082C8.66848 9.73368 8.56286 8.66132 8.76865 7.62676C8.97444 6.59219 9.48239 5.64188 10.2283 4.896C10.9742 4.15012 11.9245 3.64217 12.959 3.43639C13.9936 3.2306 15.0659 3.33622 16.0405 3.73988C17.015 4.14355 17.848 4.82714 18.434 5.7042C19.02 6.58126 19.3328 7.61241 19.3328 8.66724C19.3328 10.0817 18.7709 11.4383 17.7707 12.4385C16.7706 13.4387 15.414 14.0006 13.9995 14.0006Z" fill="white"/>
</svg>
