<svg width="28" height="28" viewBox="0 0 28 28" fill="none" xmlns="http://www.w3.org/2000/svg">
<path d="M17.9998 12.6667H15.3332V7.33342C15.3332 6.97979 15.1927 6.64065 14.9427 6.39061C14.6926 6.14056 14.3535 6.00008 13.9998 6.00008C13.6462 6.00008 13.3071 6.14056 13.057 6.39061C12.807 6.64065 12.6665 6.97979 12.6665 7.33342V14.0001C12.6665 14.3537 12.807 14.6928 13.057 14.9429C13.3071 15.1929 13.6462 15.3334 13.9998 15.3334H17.9998C18.3535 15.3334 18.6926 15.1929 18.9427 14.9429C19.1927 14.6928 19.3332 14.3537 19.3332 14.0001C19.3332 13.6465 19.1927 13.3073 18.9427 13.0573C18.6926 12.8072 18.3535 12.6667 17.9998 12.6667ZM13.9998 0.666748C11.3628 0.666748 8.7849 1.44873 6.59224 2.91382C4.39958 4.37891 2.69062 6.46129 1.68145 8.89764C0.672281 11.334 0.408237 14.0149 0.922706 16.6013C1.43718 19.1877 2.70705 21.5635 4.57175 23.4282C6.43645 25.2929 8.81223 26.5627 11.3986 27.0772C13.9851 27.5917 16.6659 27.3276 19.1023 26.3185C21.5386 25.3093 23.621 23.6003 25.0861 21.4077C26.5512 19.215 27.3332 16.6372 27.3332 14.0001C27.3332 12.2491 26.9883 10.5153 26.3182 8.89764C25.6482 7.27996 24.666 5.81011 23.4279 4.57199C22.1898 3.33388 20.72 2.35175 19.1023 1.68169C17.4846 1.01162 15.7508 0.666748 13.9998 0.666748ZM13.9998 24.6667C11.8902 24.6667 9.82788 24.0412 8.07376 22.8691C6.31964 21.697 4.95246 20.0311 4.14513 18.082C3.33779 16.133 3.12656 13.9882 3.53813 11.9191C3.94971 9.84999 4.96561 7.94937 6.45737 6.45761C7.94913 4.96585 9.84975 3.94995 11.9189 3.53837C13.988 3.1268 16.1327 3.33803 18.0818 4.14537C20.0309 4.9527 21.6968 6.31987 22.8689 8.074C24.0409 9.82812 24.6665 11.8904 24.6665 14.0001C24.6665 16.8291 23.5427 19.5422 21.5423 21.5426C19.5419 23.5429 16.8288 24.6667 13.9998 24.6667Z" fill="white" fill-opacity="0.5"/>
</svg>
