<svg width="30" height="28" viewBox="0 0 30 28" fill="none" xmlns="http://www.w3.org/2000/svg">
<path d="M26.7862 4.14739C26.1052 3.46606 25.2966 2.92559 24.4066 2.55684C23.5167 2.18809 22.5628 1.99829 21.5995 1.99829C20.6362 1.99829 19.6823 2.18809 18.7924 2.55684C17.9024 2.92559 17.0938 3.46606 16.4128 4.14739L14.9995 5.56072L13.5862 4.14739C12.2106 2.7718 10.3449 1.999 8.39951 1.999C6.45413 1.999 4.58843 2.7718 3.21284 4.14739C1.83725 5.52298 1.06445 7.38868 1.06445 9.33406C1.06445 11.2794 1.83725 13.1451 3.21284 14.5207L4.62617 15.9341L14.9995 26.3074L25.3728 15.9341L26.7862 14.5207C27.4675 13.8397 28.008 13.0311 28.3767 12.1412C28.7455 11.2513 28.9353 10.2974 28.9353 9.33406C28.9353 8.37074 28.7455 7.41686 28.3767 6.52692C28.008 5.63697 27.4675 4.8284 26.7862 4.14739V4.14739Z" stroke="white" stroke-opacity="0.5" stroke-width="2" stroke-linecap="round" stroke-linejoin="round"/>
</svg>
