<svg width="27" height="28" viewBox="0 0 27 28" fill="none" xmlns="http://www.w3.org/2000/svg">
<path d="M24.533 14.8804C24.3193 14.6371 24.2014 14.3243 24.2014 14.0004C24.2014 13.6766 24.3193 13.3637 24.533 13.1204L26.2397 11.2004C26.4278 10.9907 26.5445 10.7267 26.5733 10.4464C26.602 10.1662 26.5413 9.88401 26.3997 9.64043L23.733 5.0271C23.5929 4.78379 23.3795 4.59093 23.1234 4.47601C22.8672 4.36109 22.5813 4.32997 22.3064 4.3871L19.7997 4.89376C19.4807 4.95967 19.1487 4.90655 18.8662 4.74443C18.5837 4.58231 18.3704 4.32241 18.2664 4.01376L17.453 1.57376C17.3636 1.30894 17.1932 1.07892 16.9659 0.916219C16.7386 0.753522 16.4659 0.666375 16.1864 0.667096H10.853C10.5623 0.65192 10.2745 0.732332 10.0338 0.896049C9.79303 1.05977 9.61247 1.29779 9.5197 1.57376L8.77303 4.01376C8.66903 4.32241 8.45566 4.58231 8.17318 4.74443C7.8907 4.90655 7.55865 4.95967 7.2397 4.89376L4.66637 4.3871C4.40577 4.35027 4.1401 4.39139 3.90283 4.50528C3.66556 4.61917 3.4673 4.80073 3.33303 5.0271L0.666366 9.64043C0.521246 9.8813 0.455995 10.1619 0.479942 10.4421C0.50389 10.7222 0.615809 10.9877 0.799699 11.2004L2.49303 13.1204C2.70679 13.3637 2.82468 13.6766 2.82468 14.0004C2.82468 14.3243 2.70679 14.6371 2.49303 14.8804L0.799699 16.8004C0.615809 17.0132 0.50389 17.2786 0.479942 17.5588C0.455995 17.839 0.521246 18.1196 0.666366 18.3604L3.33303 22.9738C3.47316 23.2171 3.68652 23.4099 3.9427 23.5248C4.19888 23.6398 4.4848 23.6709 4.7597 23.6138L7.26636 23.1071C7.58532 23.0412 7.91737 23.0943 8.19985 23.2564C8.48233 23.4185 8.6957 23.6785 8.7997 23.9871L9.61303 26.4271C9.7058 26.7031 9.88636 26.9411 10.1271 27.1048C10.3679 27.2685 10.6556 27.3489 10.9464 27.3338H16.2797C16.5592 27.3345 16.8319 27.2473 17.0592 27.0846C17.2865 26.9219 17.4569 26.6919 17.5464 26.4271L18.3597 23.9871C18.4637 23.6785 18.6771 23.4185 18.9595 23.2564C19.242 23.0943 19.5741 23.0412 19.893 23.1071L22.3997 23.6138C22.6746 23.6709 22.9605 23.6398 23.2167 23.5248C23.4729 23.4099 23.6862 23.2171 23.8264 22.9738L26.493 18.3604C26.6346 18.1168 26.6954 17.8347 26.6666 17.5544C26.6379 17.2742 26.5211 17.0102 26.333 16.8004L24.533 14.8804ZM22.5464 16.6671L23.613 17.8671L21.9064 20.8271L20.333 20.5071C19.3727 20.3108 18.3738 20.4739 17.5258 20.9655C16.6779 21.4571 16.0399 22.2429 15.733 23.1738L15.2264 24.6671H11.813L11.333 23.1471C11.0262 22.2162 10.3882 21.4304 9.54024 20.9388C8.69227 20.4473 7.69333 20.2841 6.73303 20.4804L5.1597 20.8004L3.42637 17.8538L4.49303 16.6538C5.14897 15.9204 5.51161 14.971 5.51161 13.9871C5.51161 13.0032 5.14897 12.0538 4.49303 11.3204L3.42637 10.1204L5.13303 7.1871L6.70637 7.5071C7.66666 7.70339 8.6656 7.54027 9.51357 7.04869C10.3615 6.55712 10.9995 5.77131 11.3064 4.84043L11.813 3.33376H15.2264L15.733 4.85376C16.0399 5.78464 16.6779 6.57045 17.5258 7.06203C18.3738 7.5536 19.3727 7.71673 20.333 7.52043L21.9064 7.20043L23.613 10.1604L22.5464 11.3604C21.8978 12.0921 21.5397 13.036 21.5397 14.0138C21.5397 14.9915 21.8978 15.9354 22.5464 16.6671ZM13.5197 8.6671C12.4649 8.6671 11.4337 8.97989 10.5567 9.56593C9.67959 10.152 8.99601 10.9849 8.59234 11.9595C8.18867 12.934 8.08306 14.0063 8.28884 15.0409C8.49463 16.0755 9.00258 17.0258 9.74846 17.7717C10.4943 18.5175 11.4447 19.0255 12.4792 19.2313C13.5138 19.4371 14.5861 19.3315 15.5607 18.9278C16.5352 18.5241 17.3682 17.8405 17.9542 16.9635C18.5402 16.0864 18.853 15.0553 18.853 14.0004C18.853 12.5859 18.2911 11.2294 17.2909 10.2292C16.2907 9.229 14.9342 8.6671 13.5197 8.6671ZM13.5197 16.6671C12.9923 16.6671 12.4767 16.5107 12.0382 16.2177C11.5996 15.9247 11.2579 15.5082 11.056 15.0209C10.8542 14.5336 10.8014 13.9975 10.9043 13.4802C11.0072 12.9629 11.2611 12.4878 11.6341 12.1148C12.007 11.7419 12.4822 11.4879 12.9995 11.385C13.5167 11.2821 14.0529 11.3349 14.5402 11.5368C15.0275 11.7386 15.4439 12.0804 15.7369 12.5189C16.03 12.9574 16.1864 13.473 16.1864 14.0004C16.1864 14.7077 15.9054 15.386 15.4053 15.886C14.9052 16.3861 14.2269 16.6671 13.5197 16.6671Z" fill="white" fill-opacity="0.5"/>
</svg>
