<svg width="19" height="25" viewBox="0 0 19 25" fill="none" xmlns="http://www.w3.org/2000/svg">
<path d="M9.11101 0.5C4.07392 0.5 0 4.35824 0 9.12866C0 14.2689 5.75295 21.3567 8.12181 24.0562C8.64244 24.6479 9.59259 24.6479 10.1132 24.0562C12.4691 21.3567 18.222 14.2689 18.222 9.12866C18.222 4.35824 14.1481 0.5 9.11101 0.5ZM9.11101 12.2103C7.31484 12.2103 5.85708 10.8297 5.85708 9.12866C5.85708 7.42758 7.31484 6.047 9.11101 6.047C10.9072 6.047 12.3649 7.42758 12.3649 9.12866C12.3649 10.8297 10.9072 12.2103 9.11101 12.2103Z" fill="#0371FF"/>
</svg>
