<svg width="24" height="25" viewBox="0 0 24 25" fill="none" xmlns="http://www.w3.org/2000/svg">
<path d="M23.9489 19.0956C23.8811 18.891 23.4492 18.5897 22.6535 18.1923C22.438 18.0671 22.1309 17.8969 21.7335 17.6809C21.3357 17.465 20.9747 17.266 20.651 17.0842C20.3267 16.9024 20.0228 16.7262 19.7389 16.556C19.6936 16.5219 19.5515 16.4227 19.3129 16.2575C19.074 16.0929 18.8726 15.9707 18.7075 15.891C18.5427 15.8117 18.3807 15.7719 18.2216 15.7719C17.9944 15.7719 17.7105 15.9339 17.3697 16.2575C17.0289 16.5816 16.7163 16.9336 16.4323 17.3146C16.1483 17.6954 15.8471 18.0474 15.5292 18.3713C15.2109 18.6953 14.9493 18.8572 14.745 18.8572C14.6424 18.8572 14.5145 18.8286 14.3613 18.7722C14.2081 18.7154 14.0915 18.6667 14.0115 18.6275C13.9322 18.5875 13.7962 18.5082 13.6028 18.3885C13.4092 18.2691 13.3015 18.2037 13.2788 18.1923C11.7219 17.3285 10.3868 16.3399 9.27296 15.2266C8.15951 14.1127 7.17067 12.7777 6.30703 11.2208C6.29569 11.1981 6.23019 11.0901 6.11096 10.897C5.99155 10.7037 5.91196 10.5675 5.8722 10.4878C5.83244 10.4083 5.78413 10.2918 5.72741 10.1384C5.67069 9.98504 5.64221 9.85728 5.64221 9.75489C5.64221 9.55047 5.80419 9.28898 6.1281 8.97077C6.45194 8.65274 6.80432 8.35148 7.18488 8.0676C7.56574 7.78372 7.91776 7.47112 8.24173 7.13034C8.56557 6.78939 8.72749 6.50545 8.72749 6.27822C8.72749 6.11924 8.68772 5.95715 8.60826 5.79243C8.52873 5.62736 8.40657 5.42592 8.24173 5.18718C8.07682 4.94855 7.97741 4.80664 7.94326 4.76097C7.77298 4.47708 7.59703 4.17314 7.41499 3.84926C7.23294 3.52544 7.03424 3.16448 6.81823 2.76681C6.6024 2.36932 6.43206 2.06239 6.30691 1.84651C5.9094 1.05123 5.6083 0.619224 5.40369 0.551284C5.3241 0.517194 5.20469 0.5 5.04576 0.5C4.73875 0.5 4.33825 0.556717 3.84395 0.670508C3.34947 0.78412 2.96037 0.903285 2.67623 1.02848C2.10802 1.26699 1.50577 1.96012 0.86931 3.10765C0.28975 4.17559 0 5.23261 0 6.27793C0 6.58449 0.0198819 6.88276 0.0596456 7.17279C0.0994094 7.46252 0.170459 7.78927 0.272853 8.15297C0.375069 8.51656 0.457522 8.78665 0.519854 8.96253C0.582246 9.13853 0.698732 9.45381 0.86925 9.9085C1.03953 10.3631 1.14192 10.6413 1.17602 10.7436C1.57371 11.8573 2.04533 12.8515 2.59073 13.7265C3.48811 15.181 4.71272 16.6841 6.26387 18.2353C7.81507 19.7863 9.31797 21.0108 10.7726 21.9085C11.6476 22.4538 12.6422 22.9253 13.7558 23.3233C13.8581 23.3572 14.1364 23.4593 14.5909 23.6302C15.0454 23.8006 15.3609 23.9171 15.5369 23.9796C15.713 24.0422 15.9831 24.1247 16.3464 24.227C16.7105 24.3294 17.037 24.4005 17.3267 24.4405C17.6167 24.4798 17.915 24.5 18.2217 24.5C19.267 24.5 20.3241 24.2101 21.3923 23.6306C22.5398 22.9944 23.2328 22.3921 23.4714 21.8235C23.5969 21.5397 23.7158 21.1505 23.8294 20.6561C23.9434 20.1618 24 19.7614 24 19.4545C24.0004 19.2949 23.9832 19.1758 23.9489 19.0956Z" fill="#0371FF"/>
</svg>
