<svg width="24" height="25" viewBox="0 0 24 25" fill="none" xmlns="http://www.w3.org/2000/svg">
<g clip-path="url(#clip0)">
<path d="M23.7885 5.26819L16.5098 12.5L23.7885 19.7318C23.92 19.4568 23.9999 19.1528 23.9999 18.8281V6.17189C23.9999 5.84719 23.92 5.5432 23.7885 5.26819Z" fill="#0371FF"/>
<path d="M21.89 4.0625H2.10878C1.78408 4.0625 1.48009 4.14233 1.20508 4.27391L10.508 13.53C11.3306 14.3526 12.6682 14.3526 13.4908 13.53L22.7937 4.27391C22.5187 4.14233 22.2147 4.0625 21.89 4.0625Z" fill="#0371FF"/>
<path d="M0.211406 5.26819C0.0798281 5.5432 0 5.84719 0 6.17189V18.8281C0 19.1528 0.0798281 19.4569 0.211406 19.7318L7.49011 12.5L0.211406 5.26819Z" fill="#0371FF"/>
<path d="M15.515 13.4943L14.485 14.5242C13.1145 15.8948 10.8843 15.8948 9.51372 14.5242L8.48378 13.4943L1.20508 20.7261C1.48009 20.8577 1.78408 20.9375 2.10878 20.9375H21.89C22.2147 20.9375 22.5187 20.8577 22.7937 20.7261L15.515 13.4943Z" fill="#0371FF"/>
</g>
<defs>
<clipPath id="clip0">
<rect width="24" height="24" fill="white" transform="translate(0 0.5)"/>
</clipPath>
</defs>
</svg>
